<svg width="189" height="44" viewBox="0 0 189 44" fill="none" xmlns="http://www.w3.org/2000/svg">
<path fill-rule="evenodd" clip-rule="evenodd" d="M6.16005 9.06889C7.08468 3.82348 11.6404 4.10494e-08 16.9683 5.98381e-08L188.128 6.63429e-07L181.968 34.9311C181.043 40.1765 176.485 44 171.159 44L-1.55165e-07 44L6.16005 9.06889ZM82.4631 19.5036L84.7347 6.62376L84.7372 6.62126L54.6641 6.62126L53.1497 15.2078L70.3429 15.2078L69.8856 17.7968L61.289 17.7968L59.7746 26.3834L68.3712 26.3834L67.9139 28.9724L50.7207 28.9724L49.2063 37.5589L79.2793 37.5589L81.5734 24.5516L79.5168 22.0276L82.4631 19.5036ZM97.198 28.9734L101.139 6.62484L88.239 6.62484L82.7837 37.56L109.426 37.56L110.94 28.9734L97.198 28.9734ZM147.541 6.62484L146.027 15.2114L128.856 15.2114L128.399 17.8004L145.57 17.8004L144.055 26.387L126.885 26.387L126.427 28.9759L143.598 28.9759L142.084 37.5625L112.01 37.5625L117.466 6.62734L147.539 6.62734L147.541 6.62484ZM51.1577 6.62484L13.8476 6.62484L8.39225 37.56L18.998 37.56L22.4816 17.8004L25.2281 17.8004L21.7444 37.56L32.3502 37.56L35.8338 17.8004L38.5802 17.8004L35.0966 37.56L45.7024 37.56L51.1577 6.62484ZM180.203 6.62484L178.689 15.2114L161.518 15.2114L161.061 17.8004L178.231 17.8004L176.717 26.387L159.546 26.387L159.089 28.9759L176.26 28.9759L174.745 37.5625L144.672 37.5625L150.127 6.62734L180.201 6.62734L180.203 6.62484Z" fill="#F9FEDC"/>
</svg>
