<svg width="169" height="44" viewBox="0 0 169 44" fill="none" xmlns="http://www.w3.org/2000/svg">
<path d="M93.171 4.73068L87.4552 31.9646H111.851L113.275 25.177H98.1175L99.1022 20.4857H110.362L111.942 12.9584H100.682L101.298 10.0202L99.3701 8.2671H116.824L117.569 4.72141L114.736 0L92.8024 1.34036L93.1871 4.65648L93.171 4.73068ZM114.422 31.9646H123.665L126.211 20.4579H129.291L135.197 31.9646H144.343L137.716 19.034H139.951C141.813 19.034 143.427 17.754 143.876 15.922L146.233 4.72141L143.4 0L119.767 1.34268L120.15 4.65648L114.418 31.9646H114.422ZM129.138 8.27406H136.225L135.245 12.9584H127.649L128.265 10.0202L126.33 8.26246L129.136 8.27406H129.138ZM28.1922 19.034H30.4273C32.289 19.034 33.9035 17.754 34.3523 15.922L36.7087 4.72141L33.876 0L8.77987 1.43312L10.6485 4.54981L4.89603 31.9623H14.1385L16.6758 20.4857L19.765 20.4509L29.4838 39.3945L25.0183 34.3206H4.3991L2.98158 41.0781L0 44H40.9888L38.2659 38.6873L43.1322 44H160.438L162.469 34.3183H36.0286L28.1922 19.0294V19.034ZM25.719 12.9584H18.1231L18.7391 10.0202L16.8109 8.2671L26.6969 8.27406L25.7167 12.9584H25.719ZM39.5163 4.733L34.9363 26.5266L37.7232 31.9623H43.036L45.5802 20.4556H51.3671L48.9511 31.9623H58.189L63.9277 4.71909L61.0973 0L39.1453 1.34036L39.5323 4.6588L39.5163 4.733ZM53.925 8.27174L52.9426 12.956H47.0206L47.6366 10.0249L45.7085 8.27174H53.925ZM66.236 4.733L60.5042 31.9623H84.8973L87.4735 19.6996H78.2357L77.0861 25.1747H71.1664L74.3449 10.0179L72.4168 8.26246H80.6356L79.6509 12.9537H88.8887L90.6177 4.71677L87.785 0L65.8673 1.34036L66.2544 4.6588L66.2383 4.733H66.236ZM168.063 1.31485L165.132 0.343206L153.123 1.20586L151.598 8.2787L154.731 8.27174L150.128 25.1747H147.62L146.196 31.9623H162.631L164.056 25.1747H161.578L168.066 1.31485H168.063Z" fill="#F9FEDC"/>
</svg>
