<svg width="840" height="233" viewBox="0 0 840 233" fill="none" xmlns="http://www.w3.org/2000/svg">
<path d="M5.31166 209V24.488H54.1677L64.3357 110.792L74.9997 24.488H121.128V209H85.9117V108.312L70.2877 209H55.6557L40.0317 108.312V209H5.31166ZM185.336 209L182.36 181.968H163.512L160.784 209H125.32L148.88 24.488H199.224L225.016 209H185.336ZM172.936 89.464L167.232 145.512H178.64L172.936 89.464ZM248.137 110.296L228.297 24.488H269.713L278.393 78.552L286.825 24.488H325.761L306.913 110.296L329.481 209H288.313L277.401 146.752L265.993 209H226.065L248.137 110.296ZM352.519 110.296L332.679 24.488H374.095L382.775 78.552L391.207 24.488H430.143L411.295 110.296L433.863 209H392.695L381.783 146.752L370.375 209H330.447L352.519 110.296Z" fill="#F9FEDC"/>
<rect x="457.5" width="382" height="233" rx="48" fill="#F7961E"/>
<path d="M535.372 134.6V209H494.452V24.488H535.372V91.448H549.508V24.488H590.428V209H549.508V134.6H535.372ZM599.562 165.104V24.488H641.722V163.12C641.722 169.32 643.954 172.544 648.418 172.544C653.378 172.544 655.114 169.072 655.114 163.12V24.488H697.274V165.104C697.274 193.128 681.154 211.976 652.138 211.976H644.202C613.45 211.976 599.562 193.624 599.562 165.104ZM706.124 209V24.488H768.124C789.204 24.488 800.612 34.16 800.612 59.208V79.544C800.612 97.152 789.452 105.584 783.5 107.568C792.18 110.296 804.084 117.24 804.084 139.064V166.344C804.084 194.864 792.924 209 770.604 209H706.124ZM753.74 127.656H747.044V176.264H754.484C759.444 176.264 761.428 174.28 761.428 166.344V137.08C761.428 130.384 759.692 127.656 753.74 127.656ZM752.996 55.984H747.044V95.664H752.748C757.46 95.664 760.188 93.432 760.188 86.488V64.664C760.188 58.96 758.7 55.984 752.996 55.984Z" fill="#10151B"/>
</svg>
