<svg width="22" height="24" viewBox="0 0 22 24" fill="none" xmlns="http://www.w3.org/2000/svg">
<path d="M10.1611 0H15.9736C16.5361 0 17.1455 0.28125 17.5674 0.703125L20.708 3.84375C21.1299 4.26562 21.4111 4.875 21.4111 5.4375V15.75C21.4111 17.0156 20.3799 18 19.1611 18H10.1611C8.89551 18 7.91113 17.0156 7.91113 15.75V2.25C7.91113 1.03125 8.89551 0 10.1611 0ZM2.66113 6H6.41113V9H3.41113V21H12.4111V19.5H15.4111V21.75C15.4111 23.0156 14.3799 24 13.1611 24H2.66113C1.39551 24 0.411133 23.0156 0.411133 21.75V8.25C0.411133 7.03125 1.39551 6 2.66113 6Z" fill="black"/>
</svg>
