<svg width="45" height="48" viewBox="0 0 45 48" fill="none" xmlns="http://www.w3.org/2000/svg">
<path d="M27.5555 46.1801L39.6285 39.2104C42.5718 37.5104 44.3853 34.3697 44.3853 30.9696V17.0286C44.3853 13.63 42.5718 10.4878 39.6285 8.78773L27.5555 1.81803C24.6122 0.117949 20.9851 0.117949 18.0403 1.81803L5.96725 8.78773C3.02397 10.4878 1.21045 13.6284 1.21045 17.0286V30.9696C1.21045 34.3682 3.02397 37.5104 5.96725 39.2104L18.0403 46.1801C20.9836 47.8802 24.6106 47.8802 27.5555 46.1801Z" fill="url(#paint0_linear_311_8328)"/>
<path fill-rule="evenodd" clip-rule="evenodd" d="M27.8255 1.34795C27.8255 1.34793 27.8255 1.34797 27.8255 1.34795L39.8984 8.31759C43.0099 10.1148 44.9272 13.4366 44.9272 17.0295V30.9705C44.9272 34.5649 43.01 37.8851 39.8985 39.6823L27.8254 46.6521C24.7124 48.4493 20.878 48.4494 17.7664 46.6521C17.7663 46.6521 17.7664 46.6521 17.7664 46.6521L5.69332 39.6824C2.5818 37.8851 0.664551 34.5633 0.664551 30.9705V17.0295C0.664551 13.435 2.58173 10.1149 5.69321 8.31765L17.7664 1.34789C20.8794 -0.449292 24.7139 -0.449321 27.8255 1.34795ZM27.2814 2.28991C24.5065 0.687083 21.0868 0.687011 18.3102 2.28997L6.2373 9.25961C6.23726 9.25963 6.23733 9.25959 6.2373 9.25961C3.46228 10.8625 1.75235 13.8237 1.75235 17.0295V30.9705C1.75235 34.1748 3.46226 37.1375 6.2373 38.7404L18.3102 45.71C21.0851 47.3128 24.5049 47.313 27.2815 45.71L39.3545 38.7404C42.1295 37.1374 43.8394 34.1763 43.8394 30.9705V17.0295C43.8394 13.8252 42.1295 10.8626 39.3546 9.25967C39.3545 9.25965 39.3546 9.25969 39.3546 9.25967L27.2814 2.28991Z" fill="black"/>
<path d="M26.3919 40.7552L35.5124 35.4887C37.7362 34.2051 39.1068 31.8321 39.1068 29.2634V18.7319C39.1068 16.1631 37.7362 13.7902 35.5124 12.5066L26.3919 7.24005C24.1682 5.95644 21.4285 5.95644 19.2031 7.24005L10.0827 12.5066C7.85891 13.7902 6.48828 16.1631 6.48828 18.7319V29.2634C6.48828 31.8321 7.85891 34.2051 10.0827 35.4887L19.2031 40.7552C21.4269 42.0388 24.1666 42.0388 26.3919 40.7552Z" fill="url(#paint1_linear_311_8328)"/>
<path fill-rule="evenodd" clip-rule="evenodd" d="M18.95 6.80273C21.3314 5.42907 24.2635 5.42898 26.6436 6.8028L35.7641 12.0693C35.764 12.0693 35.7641 12.0693 35.7641 12.0693C38.1441 13.4431 39.611 15.9829 39.611 18.7321V29.2635C39.611 32.0128 38.1441 34.5525 35.7641 35.9263L26.6437 41.1928L26.6435 41.1929C24.262 42.5665 21.3299 42.5666 18.9498 41.1928L9.8294 35.9263C7.44935 34.5525 5.98242 32.0128 5.98242 29.2635V18.7321C5.98242 15.9829 7.44932 13.4432 9.82932 12.0694C9.8293 12.0694 9.82935 12.0693 9.82932 12.0694L18.95 6.80273ZM19.4549 7.67759C19.4548 7.67763 19.4547 7.67766 19.4547 7.6777L10.3344 12.9441C8.26693 14.1375 6.99252 16.3438 6.99252 18.7321V29.2635C6.99252 31.6518 8.26686 33.8581 10.3344 35.0515L19.4548 40.318C21.5223 41.5114 24.0696 41.5115 26.1388 40.3179L35.259 35.0515C37.3265 33.8581 38.6009 31.6518 38.6009 29.2635V18.7321C38.6009 16.3438 37.3266 14.1375 35.2591 12.9441L26.1387 7.67763C24.0712 6.48428 21.524 6.48415 19.4549 7.67759Z" fill="black"/>
<path d="M32.6779 25.7562C31.9724 24.3312 31.772 23.1145 31.441 21.7175C33.7331 18.563 32.8939 14.4512 29.396 12.4591C29.107 12.2726 28.7371 12.6269 28.9127 12.9237C29.9694 14.8459 29.5032 16.3486 28.6594 17.1831C25.7644 15.0852 19.8283 15.0868 16.9333 17.1831C16.088 16.347 15.6218 14.8459 16.68 12.9237C16.8556 12.6284 16.4873 12.2726 16.1968 12.4591C12.6988 14.4512 11.8597 18.5645 14.1518 21.7175C13.8208 23.1129 13.6203 24.3312 12.9148 25.7562C12.1658 27.2682 11.667 28.5347 11.667 29.7996C11.667 31.4825 12.2202 32.8407 13.3111 33.8367C15.8083 35.9532 19.387 36.0775 22.7948 36.1428C26.198 36.0791 29.7876 35.9517 32.2786 33.8367C33.3694 32.8422 33.9226 31.4841 33.9226 29.7996C33.9226 28.5331 33.4238 27.2666 32.6748 25.7562H32.6779Z" fill="white"/>
<path d="M32.6779 25.3509C31.9724 23.926 31.772 22.7092 31.441 21.3122C33.7331 18.1577 32.8939 14.046 29.396 12.0538C29.107 11.8673 28.7371 12.2216 28.9127 12.5184C29.9694 14.4407 29.5032 15.9433 28.6594 16.7778C25.7644 14.68 19.8283 14.6815 16.9333 16.7778C16.088 15.9418 15.6218 14.4407 16.68 12.5184C16.8556 12.2232 16.4873 11.8673 16.1968 12.0538C12.6988 14.046 11.8597 18.1593 14.1518 21.3122C13.8208 22.7077 13.6203 23.926 12.9148 25.3509C12.1658 26.8629 11.667 28.1294 11.667 29.3943C11.667 31.0772 12.2202 32.4354 13.3111 33.4315C15.8083 35.5479 19.387 35.6723 22.7948 35.7375C26.198 35.6738 29.7876 35.5464 32.2786 33.4315C33.3694 32.4369 33.9226 31.0788 33.9226 29.3943C33.9226 28.1278 33.4238 26.8614 32.6748 25.3509H32.6779ZM18.105 27.2126C17.126 27.082 16.3382 26.2926 16.2092 25.3136C16.1237 24.6656 16.3195 24.0643 16.6894 23.6121C16.7593 23.5266 16.896 23.5048 16.9893 23.5639L20.3365 25.6493C20.4344 25.7099 20.4732 25.8358 20.425 25.9414C20.035 26.7899 19.1275 27.3509 18.1034 27.2141L18.105 27.2126ZM26.9097 30.6934C26.8646 30.6996 26.8118 30.7027 26.7558 30.7027C26.6315 30.7027 26.4839 30.6825 26.3332 30.6375C25.9742 31.1068 24.9455 32.1261 22.7964 32.1261C20.6473 32.1261 19.6185 31.1052 19.2596 30.6375C19.1089 30.6825 18.9612 30.7027 18.8369 30.7027C18.7794 30.7027 18.7281 30.6996 18.6831 30.6934C18.5168 30.6717 18.3987 30.5178 18.4205 30.3515C18.4422 30.1853 18.5929 30.0672 18.7608 30.0889C18.7965 30.0936 18.9954 30.1091 19.1897 30.019C19.2036 30.0081 19.213 29.9941 19.2285 29.9864C19.2394 29.9801 19.2518 29.9801 19.2642 29.9755C19.3621 29.9133 19.4554 29.8201 19.5144 29.674C19.5781 29.5186 19.7568 29.444 19.9122 29.5062C20.0676 29.5699 20.1438 29.7471 20.0801 29.904C20.0101 30.078 19.9122 30.2132 19.8035 30.322C20.1236 30.7121 20.9953 31.5046 22.7979 31.5046C24.6005 31.5046 25.4723 30.7136 25.7924 30.322C25.6821 30.2132 25.5857 30.0765 25.5158 29.904C25.4521 29.7486 25.5267 29.5699 25.6836 29.5062C25.839 29.4425 26.0177 29.5171 26.0814 29.674C26.142 29.8232 26.2353 29.9149 26.3363 29.9786C26.3471 29.9833 26.3596 29.9832 26.3689 29.9895C26.3829 29.9972 26.3922 30.0097 26.4046 30.019C26.6004 30.1107 26.8009 30.0936 26.8351 30.0905C27.0014 30.0703 27.1536 30.1884 27.1738 30.3546C27.194 30.5209 27.0791 30.6732 26.9128 30.695L26.9097 30.6934ZM29.3836 25.3136C29.2546 26.2926 28.4667 27.082 27.4877 27.2126C26.4652 27.3493 25.5577 26.7883 25.1661 25.9399C25.118 25.8342 25.1568 25.7099 25.2547 25.6477L28.6019 23.5623C28.6967 23.5033 28.8319 23.525 28.9018 23.6105C29.2717 24.0643 29.4659 24.6656 29.382 25.3121L29.3836 25.3136Z" fill="black"/>
<path d="M18.1051 27.2161C17.1262 27.0856 16.3383 26.2962 16.2093 25.3172C16.1239 24.6692 16.3197 24.0678 16.6895 23.6156C16.7594 23.5301 16.8962 23.5084 16.9894 23.5674L20.3366 25.6528C20.4345 25.7134 20.4734 25.8393 20.4252 25.945C20.0351 26.7934 19.1276 27.3544 18.1036 27.2177L18.1051 27.2161Z" fill="white"/>
<path d="M26.9103 30.6973C26.8652 30.7035 26.8124 30.7066 26.7564 30.7066C26.6321 30.7066 26.4845 30.6864 26.3337 30.6413C25.9748 31.1106 24.9461 32.13 22.797 32.13C20.6478 32.13 19.6191 31.1091 19.2602 30.6413C19.1094 30.6864 18.9618 30.7066 18.8375 30.7066C18.78 30.7066 18.7287 30.7035 18.6837 30.6973C18.5174 30.6755 18.3993 30.5217 18.421 30.3554C18.4428 30.1891 18.5935 30.071 18.7614 30.0928C18.7971 30.0974 18.996 30.113 19.1902 30.0229C19.2042 30.012 19.2136 29.998 19.2291 29.9902C19.24 29.984 19.2524 29.984 19.2648 29.9793C19.3627 29.9172 19.456 29.8239 19.515 29.6779C19.5787 29.5225 19.7574 29.4479 19.9128 29.5101C20.0682 29.5738 20.1444 29.7509 20.0807 29.9079C20.0107 30.0819 19.9128 30.2171 19.8041 30.3259C20.1242 30.7159 20.9959 31.5084 22.7985 31.5084C24.6011 31.5084 25.4729 30.7175 25.793 30.3259C25.6826 30.2171 25.5863 30.0804 25.5164 29.9079C25.4527 29.7525 25.5272 29.5738 25.6842 29.5101C25.8396 29.4463 26.0183 29.5209 26.082 29.6779C26.1426 29.8271 26.2358 29.9187 26.3369 29.9825C26.3477 29.9871 26.3602 29.9871 26.3695 29.9933C26.3835 30.0011 26.3928 30.0135 26.4052 30.0229C26.601 30.1145 26.8015 30.0974 26.8357 30.0943C27.0019 30.0741 27.1542 30.1922 27.1744 30.3585C27.1946 30.5248 27.0796 30.6771 26.9134 30.6988L26.9103 30.6973Z" fill="white"/>
<path d="M29.3831 25.3168C29.2541 26.2958 28.4662 27.0852 27.4873 27.2157C26.4648 27.3524 25.5573 26.7915 25.1657 25.943C25.1175 25.8373 25.1563 25.713 25.2542 25.6509L28.6014 23.5655C28.6962 23.5064 28.8314 23.5282 28.9014 23.6136C29.2712 24.0674 29.4654 24.6688 29.3815 25.3152L29.3831 25.3168Z" fill="white"/>
<path d="M27.5564 46.1821L39.6295 39.2124C42.5728 37.5123 44.3863 34.3717 44.3863 30.9715V17.0306C44.3863 13.632 42.5728 10.4898 39.6295 8.78968L27.5564 1.81998C24.6131 0.119902 20.9861 0.119902 18.0413 1.81998L5.96823 8.78968C3.02495 10.4898 1.21143 13.6304 1.21143 17.0306V30.9715C1.21143 34.3701 3.02495 37.5123 5.96823 39.2124L18.0413 46.1821C20.9846 47.8822 24.6116 47.8822 27.5564 46.1821Z" fill="url(#paint2_linear_311_8328)"/>
<path fill-rule="evenodd" clip-rule="evenodd" d="M27.8284 1.34795C27.8284 1.34793 27.8285 1.34797 27.8284 1.34795L39.9014 8.31759C43.0129 10.1148 44.9301 13.4366 44.9301 17.0295V30.9705C44.9301 34.5649 43.013 37.8851 39.9015 39.6823L27.8283 46.6521C24.7153 48.4493 20.8809 48.4494 17.7693 46.6521C17.7693 46.6521 17.7693 46.6521 17.7693 46.6521L5.69625 39.6824C2.58473 37.8851 0.66748 34.5633 0.66748 30.9705V17.0295C0.66748 13.435 2.58466 10.1149 5.69614 8.31765L17.7693 1.34789C20.8823 -0.449292 24.7168 -0.449321 27.8284 1.34795ZM27.2843 2.28991C24.5094 0.687083 21.0898 0.687011 18.3132 2.28997L6.24023 9.25961C6.24019 9.25963 6.24026 9.25959 6.24023 9.25961C3.46521 10.8625 1.75528 13.8237 1.75528 17.0295V30.9705C1.75528 34.1748 3.46519 37.1375 6.24023 38.7404L18.3132 45.71C21.0881 47.3128 24.5078 47.313 27.2845 45.71L39.3574 38.7404C42.1325 37.1374 43.8423 34.1763 43.8423 30.9705V17.0295C43.8423 13.8252 42.1325 10.8626 39.3575 9.25967C39.3575 9.25965 39.3575 9.25969 39.3575 9.25967L27.2843 2.28991Z" fill="black"/>
<path d="M26.3949 40.7552L35.5153 35.4887C37.7391 34.2051 39.1097 31.8321 39.1097 29.2634V18.7319C39.1097 16.1631 37.7391 13.7902 35.5153 12.5066L26.3949 7.24005C24.1711 5.95644 21.4314 5.95644 19.2061 7.24005L10.0856 12.5066C7.86184 13.7902 6.49121 16.1631 6.49121 18.7319V29.2634C6.49121 31.8321 7.86184 34.2051 10.0856 35.4887L19.2061 40.7552C21.4298 42.0388 24.1695 42.0388 26.3949 40.7552Z" fill="url(#paint3_linear_311_8328)"/>
<path fill-rule="evenodd" clip-rule="evenodd" d="M18.9529 6.80175C21.3344 5.42809 24.2665 5.42801 26.6465 6.80183L35.767 12.0683C35.767 12.0683 35.767 12.0684 35.767 12.0683C38.147 13.4422 39.614 15.9819 39.614 18.7311V29.2626C39.614 32.0118 38.147 34.5515 35.767 35.9253L26.6466 41.1918L26.6464 41.1919C24.265 42.5656 21.3328 42.5656 18.9528 41.1918L9.83233 35.9253C7.45228 34.5515 5.98535 32.0118 5.98535 29.2626V18.7311C5.98535 15.9819 7.45225 13.4422 9.83225 12.0684C9.83223 12.0684 9.83228 12.0684 9.83225 12.0684L18.9529 6.80175ZM19.4578 7.67661C19.4577 7.67665 19.4577 7.67669 19.4576 7.67673L10.3374 12.9431C8.26986 14.1365 6.99545 16.3428 6.99545 18.7311V29.2626C6.99545 31.6509 8.26979 33.8571 10.3373 35.0505L19.4577 40.317C21.5252 41.5104 24.0725 41.5105 26.1417 40.3169L35.262 35.0505C37.3295 33.8571 38.6039 31.6509 38.6039 29.2626V18.7311C38.6039 16.3428 37.3295 14.1366 35.262 12.9432L26.1416 7.67665C24.0742 6.4833 21.527 6.48317 19.4578 7.67661Z" fill="black"/>
<path d="M32.6809 25.7591C31.9754 24.3342 31.7749 23.1174 31.4439 21.7204C33.736 18.5659 32.8969 14.4542 29.3989 12.462C29.1099 12.2755 28.74 12.6298 28.9156 12.9266C29.9723 14.8489 29.5061 16.3515 28.6624 17.186C25.7673 15.0882 19.8313 15.0897 16.9363 17.186C16.0909 16.35 15.6247 14.8489 16.683 12.9266C16.8586 12.6314 16.4903 12.2755 16.1997 12.462C12.7017 14.4542 11.8626 18.5675 14.1547 21.7204C13.8237 23.1159 13.6232 24.3342 12.9177 25.7591C12.1687 27.2711 11.6699 28.5376 11.6699 29.8025C11.6699 31.4854 12.2231 32.8436 13.314 33.8397C15.8112 35.9561 19.3899 36.0805 22.7977 36.1457C26.2009 36.082 29.7905 35.9546 32.2815 33.8397C33.3724 32.8451 33.9256 31.487 33.9256 29.8025C33.9256 28.536 33.4268 27.2696 32.6778 25.7591H32.6809Z" fill="#EAFE96"/>
<path d="M32.6809 25.3539C31.9754 23.9289 31.7749 22.7121 31.4439 21.3151C33.736 18.1606 32.8969 14.0489 29.3989 12.0567C29.1099 11.8702 28.74 12.2245 28.9156 12.5214C29.9723 14.4436 29.5061 15.9463 28.6624 16.7807C25.7673 14.6829 19.8313 14.6844 16.9363 16.7807C16.0909 15.9447 15.6247 14.4436 16.683 12.5214C16.8586 12.2261 16.4903 11.8702 16.1997 12.0567C12.7017 14.0489 11.8626 18.1622 14.1547 21.3151C13.8237 22.7106 13.6232 23.9289 12.9177 25.3539C12.1687 26.8659 11.6699 28.1323 11.6699 29.3972C11.6699 31.0802 12.2231 32.4383 13.314 33.4344C15.8112 35.5509 19.3899 35.6752 22.7977 35.7405C26.2009 35.6767 29.7905 35.5493 32.2815 33.4344C33.3724 32.4399 33.9256 31.0817 33.9256 29.3972C33.9256 28.1308 33.4268 26.8643 32.6778 25.3539H32.6809ZM18.1079 27.2155C17.1289 27.085 16.3411 26.2956 16.2121 25.3166C16.1266 24.6686 16.3224 24.0672 16.6923 23.615C16.7622 23.5295 16.899 23.5078 16.9922 23.5668L20.3394 25.6522C20.4373 25.7128 20.4761 25.8387 20.428 25.9444C20.0379 26.7928 19.1304 27.3538 18.1064 27.217L18.1079 27.2155ZM26.9126 30.6963C26.8675 30.7026 26.8147 30.7057 26.7588 30.7057C26.6344 30.7057 26.4868 30.6855 26.3361 30.6404C25.9771 31.1097 24.9484 32.1291 22.7993 32.1291C20.6502 32.1291 19.6215 31.1081 19.2625 30.6404C19.1118 30.6855 18.9642 30.7057 18.8398 30.7057C18.7823 30.7057 18.7311 30.7026 18.686 30.6963C18.5197 30.6746 18.4016 30.5207 18.4234 30.3545C18.4451 30.1882 18.5959 30.0701 18.7637 30.0919C18.7994 30.0965 18.9983 30.1121 19.1926 30.0219C19.2066 30.011 19.2159 29.9971 19.2314 29.9893C19.2423 29.9831 19.2547 29.9831 19.2672 29.9784C19.3651 29.9163 19.4583 29.823 19.5174 29.6769C19.5811 29.5215 19.7598 29.447 19.9152 29.5091C20.0706 29.5728 20.1467 29.75 20.083 29.9069C20.0131 30.081 19.9152 30.2162 19.8064 30.3249C20.1265 30.715 20.9983 31.5075 22.8009 31.5075C24.6034 31.5075 25.4752 30.7165 25.7953 30.3249C25.685 30.2162 25.5886 30.0794 25.5187 29.9069C25.455 29.7515 25.5296 29.5728 25.6865 29.5091C25.8419 29.4454 26.0206 29.52 26.0844 29.6769C26.145 29.8261 26.2382 29.9178 26.3392 29.9815C26.3501 29.9862 26.3625 29.9862 26.3718 29.9924C26.3858 30.0002 26.3951 30.0126 26.4076 30.0219C26.6034 30.1136 26.8038 30.0965 26.838 30.0934C27.0043 30.0732 27.1566 30.1913 27.1768 30.3576C27.197 30.5238 27.082 30.6761 26.9157 30.6979L26.9126 30.6963ZM29.3865 25.3166C29.2575 26.2956 28.4697 27.085 27.4907 27.2155C26.4682 27.3522 25.5607 26.7913 25.1691 25.9428C25.1209 25.8371 25.1598 25.7128 25.2577 25.6507L28.6049 23.5653C28.6996 23.5062 28.8348 23.528 28.9048 23.6134C29.2746 24.0672 29.4689 24.6686 29.3849 25.315L29.3865 25.3166Z" fill="black"/>
<path d="M18.111 27.2161C17.132 27.0856 16.3442 26.2962 16.2152 25.3172C16.1297 24.6692 16.3255 24.0678 16.6954 23.6156C16.7653 23.5301 16.902 23.5084 16.9953 23.5674L20.3425 25.6528C20.4404 25.7134 20.4792 25.8393 20.431 25.945C20.041 26.7934 19.1335 27.3544 18.1094 27.2177L18.111 27.2161Z" fill="#EAFE96"/>
<path d="M26.9132 30.6953C26.8681 30.7015 26.8153 30.7046 26.7593 30.7046C26.635 30.7046 26.4874 30.6844 26.3367 30.6394C25.9777 31.1087 24.949 32.1281 22.7999 32.1281C20.6508 32.1281 19.6221 31.1071 19.2631 30.6394C19.1124 30.6844 18.9647 30.7046 18.8404 30.7046C18.7829 30.7046 18.7317 30.7015 18.6866 30.6953C18.5203 30.6736 18.4022 30.5197 18.424 30.3534C18.4457 30.1872 18.5965 30.0691 18.7643 30.0908C18.8 30.0955 18.9989 30.111 19.1932 30.0209C19.2072 30.01 19.2165 29.996 19.232 29.9883C19.2429 29.9821 19.2553 29.9821 19.2678 29.9774C19.3657 29.9152 19.4589 29.822 19.518 29.6759C19.5817 29.5205 19.7604 29.4459 19.9158 29.5081C20.0712 29.5718 20.1473 29.749 20.0836 29.9059C20.0137 30.08 19.9158 30.2151 19.807 30.3239C20.1271 30.714 20.9989 31.5065 22.8014 31.5065C24.604 31.5065 25.4758 30.7155 25.7959 30.3239C25.6856 30.2151 25.5892 30.0784 25.5193 29.9059C25.4556 29.7505 25.5302 29.5718 25.6871 29.5081C25.8425 29.4444 26.0212 29.519 26.0849 29.6759C26.1455 29.8251 26.2388 29.9168 26.3398 29.9805C26.3507 29.9852 26.3631 29.9852 26.3724 29.9914C26.3864 29.9991 26.3957 30.0116 26.4082 30.0209C26.604 30.1126 26.8044 30.0955 26.8386 30.0924C27.0049 30.0722 27.1572 30.1903 27.1774 30.3566C27.1976 30.5228 27.0826 30.6751 26.9163 30.6969L26.9132 30.6953Z" fill="#EAFE96"/>
<path d="M29.384 25.3168C29.2551 26.2958 28.4672 27.0852 27.4882 27.2157C26.4657 27.3524 25.5582 26.7915 25.1666 25.943C25.1185 25.8373 25.1573 25.713 25.2552 25.6509L28.6024 23.5655C28.6972 23.5064 28.8324 23.5282 28.9023 23.6136C29.2722 24.0674 29.4664 24.6688 29.3825 25.3152L29.384 25.3168Z" fill="#EAFE96"/>
<defs>
<linearGradient id="paint0_linear_311_8328" x1="4.24697" y1="5.44662" x2="33.299" y2="34.4987" gradientUnits="userSpaceOnUse">
<stop stop-color="#3B3B3B"/>
<stop offset="1"/>
</linearGradient>
<linearGradient id="paint1_linear_311_8328" x1="22.7975" y1="1.42963" x2="22.7975" y2="41.4266" gradientUnits="userSpaceOnUse">
<stop stop-color="#FFFF00"/>
<stop offset="0.27" stop-color="#ED88F4"/>
<stop offset="0.31" stop-color="#D296E3"/>
<stop offset="0.4" stop-color="#92B8BD"/>
<stop offset="0.49" stop-color="#60D39E"/>
<stop offset="0.57" stop-color="#3CE688"/>
<stop offset="0.63" stop-color="#26F27A"/>
<stop offset="0.68" stop-color="#1EF776"/>
<stop offset="1" stop-color="#005BFF"/>
</linearGradient>
<linearGradient id="paint2_linear_311_8328" x1="4.24795" y1="5.44858" x2="33.3" y2="34.5007" gradientUnits="userSpaceOnUse">
<stop stop-color="#3B3B3B"/>
<stop offset="1"/>
</linearGradient>
<linearGradient id="paint3_linear_311_8328" x1="22.8005" y1="6.27734" x2="22.8005" y2="41.7179" gradientUnits="userSpaceOnUse">
<stop stop-color="#D3FC51"/>
<stop offset="1" stop-color="#55780F"/>
</linearGradient>
</defs>
</svg>
