<svg width="141" height="21" viewBox="0 0 141 21" fill="none" xmlns="http://www.w3.org/2000/svg">
<path d="M28.7614 16.8018V2.2563H30.5227V15.2393H37.2841V16.8018H28.7614ZM39.7841 16.8018V5.89267H41.4602V16.8018H39.7841ZM40.6364 4.07449C40.3097 4.07449 40.0279 3.96322 39.7912 3.74068C39.5592 3.51814 39.4432 3.25062 39.4432 2.93812C39.4432 2.62562 39.5592 2.3581 39.7912 2.13556C40.0279 1.91303 40.3097 1.80176 40.6364 1.80176C40.9631 1.80176 41.2424 1.91303 41.4744 2.13556C41.7112 2.3581 41.8295 2.62562 41.8295 2.93812C41.8295 3.25062 41.7112 3.51814 41.4744 3.74068C41.2424 3.96322 40.9631 4.07449 40.6364 4.07449ZM46.2063 10.2393V16.8018H44.5302V5.89267H46.1495V7.59721H46.2915C46.5472 7.04324 46.9355 6.59816 47.4563 6.26199C47.9772 5.92108 48.6495 5.75062 49.4734 5.75062C50.212 5.75062 50.8583 5.90214 51.4123 6.20517C51.9663 6.50346 52.3971 6.95801 52.7049 7.5688C53.0127 8.17486 53.1665 8.94191 53.1665 9.86994V16.8018H51.4904V9.98358C51.4904 9.12657 51.2679 8.45895 50.8228 7.98073C50.3777 7.49778 49.7669 7.2563 48.9904 7.2563C48.4554 7.2563 47.9772 7.37231 47.5558 7.60431C47.1391 7.83632 46.81 8.17486 46.5685 8.61994C46.3271 9.06501 46.2063 9.60479 46.2063 10.2393ZM57.7919 12.8245L57.7635 10.7506H58.1044L62.8771 5.89267H64.951L59.8658 11.0347H59.7237L57.7919 12.8245ZM56.2294 16.8018V2.2563H57.9055V16.8018H56.2294ZM63.1612 16.8018L58.8999 11.404L60.093 10.2393L65.2919 16.8018H63.1612ZM77.1651 17.029C76.1424 17.029 75.2617 16.7876 74.5231 16.3046C73.7844 15.8216 73.2163 15.1564 72.8185 14.3089C72.4208 13.4613 72.2219 12.493 72.2219 11.404C72.2219 10.2961 72.4255 9.31833 72.8327 8.47079C73.2447 7.61852 73.8176 6.95327 74.5515 6.47505C75.2901 5.9921 76.1519 5.75062 77.1367 5.75062C77.9038 5.75062 78.5951 5.89267 79.2106 6.17676C79.8261 6.46085 80.3304 6.85858 80.7234 7.36994C81.1164 7.8813 81.3602 8.47789 81.4549 9.15971H79.7788C79.6509 8.66255 79.3668 8.22221 78.9265 7.83869C78.4909 7.45043 77.9038 7.2563 77.1651 7.2563C76.5117 7.2563 75.9388 7.42676 75.4464 7.76767C74.9587 8.10384 74.5775 8.57969 74.3029 9.19522C74.033 9.80602 73.8981 10.5233 73.8981 11.3472C73.8981 12.19 74.0307 12.9239 74.2958 13.5489C74.5657 14.1739 74.9445 14.6592 75.4322 15.0049C75.9246 15.3505 76.5022 15.5233 77.1651 15.5233C77.6007 15.5233 77.9961 15.4476 78.3512 15.2961C78.7063 15.1446 79.007 14.9268 79.2532 14.6427C79.4994 14.3586 79.6746 14.0177 79.7788 13.6199H81.4549C81.3602 14.2639 81.1258 14.8439 80.7518 15.36C80.3825 15.8714 79.8924 16.2786 79.2816 16.5816C78.6755 16.8799 77.9701 17.029 77.1651 17.029ZM88.337 17.029C87.3522 17.029 86.488 16.7947 85.7447 16.3259C85.006 15.8572 84.4284 15.2014 84.0117 14.3586C83.5998 13.5158 83.3938 12.5309 83.3938 11.404C83.3938 10.2677 83.5998 9.27572 84.0117 8.42818C84.4284 7.58064 85.006 6.9225 85.7447 6.45375C86.488 5.985 87.3522 5.75062 88.337 5.75062C89.3219 5.75062 90.1836 5.985 90.9222 6.45375C91.6656 6.9225 92.2433 7.58064 92.6552 8.42818C93.0719 9.27572 93.2802 10.2677 93.2802 11.404C93.2802 12.5309 93.0719 13.5158 92.6552 14.3586C92.2433 15.2014 91.6656 15.8572 90.9222 16.3259C90.1836 16.7947 89.3219 17.029 88.337 17.029ZM88.337 15.5233C89.0851 15.5233 89.7006 15.3316 90.1836 14.9481C90.6665 14.5645 91.024 14.0603 91.256 13.4353C91.488 12.8103 91.604 12.1332 91.604 11.404C91.604 10.6749 91.488 9.99541 91.256 9.36568C91.024 8.73594 90.6665 8.22695 90.1836 7.83869C89.7006 7.45043 89.0851 7.2563 88.337 7.2563C87.5889 7.2563 86.9734 7.45043 86.4904 7.83869C86.0075 8.22695 85.65 8.73594 85.418 9.36568C85.186 9.99541 85.07 10.6749 85.07 11.404C85.07 12.1332 85.186 12.8103 85.418 13.4353C85.65 14.0603 86.0075 14.5645 86.4904 14.9481C86.9734 15.3316 87.5889 15.5233 88.337 15.5233ZM95.8388 20.8927V5.89267H97.4581V7.62562H97.657C97.7801 7.43623 97.9505 7.19475 98.1683 6.90119C98.3909 6.60289 98.7081 6.33774 99.12 6.10574C99.5367 5.86899 100.1 5.75062 100.81 5.75062C101.729 5.75062 102.539 5.98026 103.239 6.43954C103.94 6.89882 104.487 7.54986 104.88 8.39267C105.273 9.23547 105.469 10.2298 105.469 11.3756C105.469 12.5309 105.273 13.5323 104.88 14.3799C104.487 15.2227 103.942 15.8761 103.246 16.3401C102.55 16.7994 101.748 17.029 100.839 17.029C100.138 17.029 99.5769 16.913 99.1555 16.681C98.7341 16.4443 98.4098 16.1768 98.1825 15.8785C97.9553 15.5754 97.7801 15.3245 97.657 15.1256H97.5149V20.8927H95.8388ZM97.4865 11.3472C97.4865 12.1711 97.6072 12.8979 97.8487 13.5276C98.0902 14.1526 98.4429 14.6427 98.907 14.9978C99.371 15.3482 99.9392 15.5233 100.612 15.5233C101.312 15.5233 101.897 15.3387 102.366 14.9694C102.839 14.5953 103.194 14.0934 103.431 13.4637C103.673 12.8292 103.793 12.1237 103.793 11.3472C103.793 10.5802 103.675 9.88888 103.438 9.27335C103.206 8.65308 102.853 8.16303 102.38 7.80318C101.911 7.43859 101.322 7.2563 100.612 7.2563C99.9297 7.2563 99.3568 7.42912 98.8928 7.77477C98.4287 8.11568 98.0784 8.5939 97.8416 9.20943C97.6049 9.82022 97.4865 10.5328 97.4865 11.3472ZM108.026 16.8018V5.89267H109.702V16.8018H108.026ZM108.879 4.07449C108.552 4.07449 108.27 3.96322 108.033 3.74068C107.801 3.51814 107.685 3.25062 107.685 2.93812C107.685 2.62562 107.801 2.3581 108.033 2.13556C108.27 1.91303 108.552 1.80176 108.879 1.80176C109.205 1.80176 109.485 1.91303 109.717 2.13556C109.953 2.3581 110.072 2.62562 110.072 2.93812C110.072 3.25062 109.953 3.51814 109.717 3.74068C109.485 3.96322 109.205 4.07449 108.879 4.07449ZM117.346 17.029C116.295 17.029 115.388 16.797 114.626 16.333C113.868 15.8643 113.284 15.2108 112.872 14.3728C112.465 13.53 112.261 12.5499 112.261 11.4324C112.261 10.315 112.465 9.33017 112.872 8.47789C113.284 7.62089 113.857 6.95327 114.591 6.47505C115.329 5.9921 116.191 5.75062 117.176 5.75062C117.744 5.75062 118.305 5.84532 118.859 6.03471C119.413 6.22411 119.917 6.53187 120.372 6.95801C120.826 7.37941 121.189 7.93812 121.458 8.63414C121.728 9.33017 121.863 10.1872 121.863 11.2052V11.9154H113.454V10.4665H120.159C120.159 9.851 120.036 9.30176 119.789 8.8188C119.548 8.33585 119.202 7.95469 118.752 7.67534C118.307 7.39598 117.782 7.2563 117.176 7.2563C116.508 7.2563 115.931 7.42202 115.443 7.75346C114.96 8.08017 114.588 8.5063 114.328 9.03187C114.067 9.55744 113.937 10.1209 113.937 10.7222V11.6881C113.937 12.512 114.079 13.2104 114.363 13.7833C114.652 14.3515 115.052 14.7847 115.564 15.083C116.075 15.3766 116.669 15.5233 117.346 15.5233C117.787 15.5233 118.184 15.4618 118.539 15.3387C118.899 15.2108 119.209 15.0215 119.47 14.7705C119.73 14.5148 119.931 14.1976 120.074 13.8188L121.693 14.2733C121.522 14.8226 121.236 15.3055 120.833 15.7222C120.431 16.1341 119.934 16.4561 119.342 16.6881C118.75 16.9154 118.085 17.029 117.346 17.029ZM128.532 17.029C127.623 17.029 126.821 16.7994 126.125 16.3401C125.429 15.8761 124.884 15.2227 124.491 14.3799C124.098 13.5323 123.902 12.5309 123.902 11.3756C123.902 10.2298 124.098 9.23547 124.491 8.39267C124.884 7.54986 125.431 6.89882 126.132 6.43954C126.833 5.98026 127.642 5.75062 128.561 5.75062C129.271 5.75062 129.832 5.86899 130.244 6.10574C130.661 6.33774 130.978 6.60289 131.196 6.90119C131.418 7.19475 131.591 7.43623 131.714 7.62562H131.856V2.2563H133.532V16.8018H131.913V15.1256H131.714C131.591 15.3245 131.416 15.5754 131.189 15.8785C130.961 16.1768 130.637 16.4443 130.216 16.681C129.794 16.913 129.233 17.029 128.532 17.029ZM128.76 15.5233C129.432 15.5233 130 15.3482 130.464 14.9978C130.928 14.6427 131.281 14.1526 131.522 13.5276C131.764 12.8979 131.885 12.1711 131.885 11.3472C131.885 10.5328 131.766 9.82022 131.529 9.20943C131.293 8.5939 130.942 8.11568 130.478 7.77477C130.014 7.42912 129.441 7.2563 128.76 7.2563C128.049 7.2563 127.458 7.43859 126.984 7.80318C126.515 8.16303 126.163 8.65308 125.926 9.27335C125.694 9.88888 125.578 10.5802 125.578 11.3472C125.578 12.1237 125.696 12.8292 125.933 13.4637C126.174 14.0934 126.529 14.5953 126.998 14.9694C127.472 15.3387 128.059 15.5233 128.76 15.5233ZM139.051 2.2563L138.909 12.7108H137.261L137.119 2.2563H139.051ZM138.085 16.9154C137.734 16.9154 137.434 16.7899 137.183 16.539C136.932 16.288 136.806 15.9874 136.806 15.637C136.806 15.2866 136.932 14.9859 137.183 14.735C137.434 14.484 137.734 14.3586 138.085 14.3586C138.435 14.3586 138.736 14.484 138.987 14.735C139.238 14.9859 139.363 15.2866 139.363 15.637C139.363 15.869 139.304 16.0821 139.186 16.2762C139.072 16.4703 138.918 16.6266 138.724 16.7449C138.535 16.8586 138.322 16.9154 138.085 16.9154Z" fill="#D3FC51"/>
<path d="M18.2266 3.3252C18.5781 3.71582 18.5781 4.30176 18.2266 4.65332L7.91406 14.9658C7.52344 15.3564 6.9375 15.3564 6.58594 14.9658L1.27344 9.65332C0.882812 9.30176 0.882812 8.71582 1.27344 8.36426C1.625 7.97363 2.21094 7.97363 2.5625 8.36426L7.21094 13.0127L16.8984 3.3252C17.25 2.97363 17.8359 2.97363 18.1875 3.3252H18.2266Z" fill="#D3FC51"/>
</svg>
