<svg width="150" height="46" viewBox="0 0 150 46" fill="none" xmlns="http://www.w3.org/2000/svg">
<rect x="0.475" y="1.40371" width="149.05" height="43.4944" rx="5.63214" fill="black" stroke="#A6A6A6" stroke-width="0.95"/>
<path d="M28.1551 21.8306C28.1551 23.0804 28.0464 24.2215 27.9377 25.3083H17.885C17.7764 24.2215 17.722 23.0804 17.722 21.8306C17.722 20.6352 17.7764 19.4941 17.885 18.353H27.9377C28.0464 19.4941 28.1551 20.6352 28.1551 21.8306ZM29.6765 18.353H36.3602C36.6862 19.4941 36.8493 20.6352 36.8493 21.8306C36.8493 23.0804 36.6862 24.2215 36.3602 25.3083H29.6765C29.7852 24.2215 29.8939 23.0261 29.8939 21.8306C29.8939 20.6352 29.7852 19.4941 29.6765 18.353ZM35.8168 16.6141H29.4592C28.9158 13.1908 27.829 10.2565 26.4706 8.40897C30.709 9.55008 34.1867 12.5931 35.8168 16.6141ZM27.7204 16.6141H18.1024C18.4284 14.6579 18.9718 12.9191 19.5695 11.5063C20.1673 10.2021 20.765 9.27839 21.4171 8.68066C22.0148 8.13728 22.5038 7.91992 22.9385 7.91992C23.3189 7.91992 23.808 8.13728 24.4057 8.68066C25.0578 9.27839 25.6555 10.2021 26.2532 11.5063C26.8509 12.9191 27.3943 14.6579 27.7204 16.6141ZM16.3636 16.6141H10.0059C11.6361 12.5931 15.1138 9.55008 19.3522 8.40897C17.9937 10.2565 16.9069 13.1908 16.3636 16.6141ZM9.46254 18.353H16.1462C16.0375 19.4941 15.9832 20.6352 15.9832 21.8306C15.9832 23.0261 16.0375 24.2215 16.1462 25.3083H9.46254C9.13651 24.2215 9.02783 23.0804 9.02783 21.8306C9.02783 20.6352 9.13651 19.4941 9.46254 18.353ZM19.5695 32.2093C18.9718 30.7965 18.4284 29.0577 18.1024 27.0472H27.7204C27.3943 29.0577 26.8509 30.7965 26.2532 32.2093C25.6555 33.5135 25.0578 34.4372 24.4057 35.0349C23.808 35.5783 23.3189 35.7414 22.9385 35.7414C22.5038 35.7414 22.0148 35.5783 21.4171 35.0349C20.765 34.4372 20.1673 33.5135 19.5695 32.2093ZM16.3636 27.0472C16.9069 30.5248 17.9937 33.4591 19.3522 35.3066C15.1138 34.1655 11.6361 31.1226 10.0059 27.0472H16.3636ZM35.8168 27.0472C34.1867 31.1226 30.709 34.1655 26.4706 35.3066C27.8834 33.4591 28.9158 30.5248 29.4592 27.0472H35.8168Z" fill="white"/>
<path d="M47.3645 17.6514V10.7423H49.699C50.241 10.7423 50.6841 10.8401 51.0282 11.0358C51.3745 11.2292 51.6309 11.4912 51.7974 11.8218C51.9638 12.1524 52.047 12.5213 52.047 12.9284C52.047 13.3354 51.9638 13.7054 51.7974 14.0383C51.6332 14.3711 51.379 14.6365 51.0349 14.8344C50.6908 15.0301 50.25 15.1279 49.7125 15.1279H48.0392V14.3857H49.6855C50.0566 14.3857 50.3546 14.3216 50.5795 14.1934C50.8044 14.0653 50.9675 13.8921 51.0687 13.6739C51.1721 13.4535 51.2239 13.205 51.2239 12.9284C51.2239 12.6517 51.1721 12.4043 51.0687 12.1862C50.9675 11.968 50.8033 11.7971 50.5761 11.6734C50.349 11.5474 50.0476 11.4845 49.672 11.4845H48.2011V17.6514H47.3645ZM54.083 10.7423V17.6514H53.2868V10.7423H54.083ZM57.0661 17.7728C56.7377 17.7728 56.4397 17.711 56.1721 17.5873C55.9044 17.4613 55.6919 17.2803 55.5344 17.0441C55.377 16.8057 55.2983 16.5178 55.2983 16.1805C55.2983 15.8836 55.3568 15.643 55.4737 15.4585C55.5907 15.2719 55.747 15.1257 55.9426 15.02C56.1383 14.9143 56.3542 14.8356 56.5904 14.7838C56.8288 14.7298 57.0683 14.6871 57.3089 14.6556C57.6238 14.6151 57.8791 14.5848 58.0748 14.5645C58.2727 14.5421 58.4166 14.5049 58.5066 14.4532C58.5988 14.4015 58.6449 14.3115 58.6449 14.1833V14.1563C58.6449 13.8235 58.5538 13.5648 58.3716 13.3804C58.1917 13.196 57.9184 13.1038 57.5518 13.1038C57.1718 13.1038 56.8738 13.187 56.6578 13.3534C56.4419 13.5199 56.2901 13.6975 56.2024 13.8865L55.4467 13.6166C55.5817 13.3017 55.7616 13.0566 55.9865 12.8811C56.2137 12.7035 56.4611 12.5798 56.7287 12.51C56.9986 12.4381 57.264 12.4021 57.5249 12.4021C57.6913 12.4021 57.8825 12.4223 58.0984 12.4628C58.3165 12.501 58.5268 12.5809 58.7292 12.7023C58.9339 12.8238 59.1037 13.0071 59.2386 13.2522C59.3736 13.4974 59.4411 13.8257 59.4411 14.2373V17.6514H58.6449V16.9497H58.6044C58.5504 17.0621 58.4605 17.1824 58.3345 17.3106C58.2086 17.4388 58.041 17.5479 57.8319 17.6379C57.6227 17.7278 57.3674 17.7728 57.0661 17.7728ZM57.1875 17.0576C57.5024 17.0576 57.7678 16.9958 57.9837 16.8721C58.2018 16.7484 58.366 16.5887 58.4762 16.393C58.5887 16.1974 58.6449 15.9916 58.6449 15.7757V15.047C58.6112 15.0874 58.5369 15.1246 58.4222 15.1583C58.3098 15.1898 58.1793 15.2179 58.0309 15.2426C57.8847 15.2651 57.7419 15.2854 57.6025 15.3034C57.4653 15.3191 57.3539 15.3326 57.2685 15.3438C57.0616 15.3708 56.8681 15.4147 56.6882 15.4754C56.5105 15.5339 56.3666 15.6227 56.2564 15.7419C56.1484 15.8589 56.0945 16.0186 56.0945 16.221C56.0945 16.4976 56.1968 16.7068 56.4015 16.8485C56.6084 16.9879 56.8704 17.0576 57.1875 17.0576ZM61.2215 19.5945C61.0865 19.5945 60.9662 19.5833 60.8605 19.5608C60.7548 19.5406 60.6817 19.5203 60.6412 19.5001L60.8436 18.7984C61.037 18.8479 61.208 18.8659 61.3564 18.8524C61.5048 18.8389 61.6364 18.7725 61.7511 18.6533C61.8681 18.5364 61.9749 18.3463 62.0716 18.0832L62.22 17.6784L60.3038 12.4695H61.1675L62.5979 16.5988H62.6519L64.0823 12.4695H64.9459L62.7463 18.407C62.6474 18.6747 62.5248 18.8962 62.3786 19.0716C62.2324 19.2493 62.0626 19.3809 61.8692 19.4664C61.678 19.5518 61.4621 19.5945 61.2215 19.5945ZM69.4648 14.5342V17.6514H68.6686V12.4695H69.4378V13.2792H69.5053C69.6267 13.0161 69.8112 12.8047 70.0585 12.645C70.3059 12.483 70.6253 12.4021 71.0166 12.4021C71.3675 12.4021 71.6745 12.474 71.9376 12.618C72.2008 12.7597 72.4054 12.9756 72.5516 13.2657C72.6978 13.5536 72.7709 13.9179 72.7709 14.3588V17.6514H71.9747V14.4127C71.9747 14.0057 71.869 13.6885 71.6576 13.4614C71.4462 13.232 71.1561 13.1173 70.7872 13.1173C70.5331 13.1173 70.3059 13.1724 70.1058 13.2826C69.9079 13.3928 69.7516 13.5536 69.6369 13.765C69.5222 13.9764 69.4648 14.2328 69.4648 14.5342ZM76.3309 17.7593C75.8631 17.7593 75.4526 17.648 75.0995 17.4253C74.7487 17.2027 74.4743 16.8912 74.2764 16.4909C74.0807 16.0905 73.9829 15.6227 73.9829 15.0874C73.9829 14.5477 74.0807 14.0765 74.2764 13.6739C74.4743 13.2713 74.7487 12.9587 75.0995 12.7361C75.4526 12.5134 75.8631 12.4021 76.3309 12.4021C76.7987 12.4021 77.208 12.5134 77.5589 12.7361C77.912 12.9587 78.1863 13.2713 78.382 13.6739C78.5799 14.0765 78.6789 14.5477 78.6789 15.0874C78.6789 15.6227 78.5799 16.0905 78.382 16.4909C78.1863 16.8912 77.912 17.2027 77.5589 17.4253C77.208 17.648 76.7987 17.7593 76.3309 17.7593ZM76.3309 17.0441C76.6862 17.0441 76.9786 16.953 77.208 16.7709C77.4374 16.5887 77.6072 16.3492 77.7174 16.0523C77.8276 15.7554 77.8827 15.4338 77.8827 15.0874C77.8827 14.7411 77.8276 14.4184 77.7174 14.1192C77.6072 13.8201 77.4374 13.5783 77.208 13.3939C76.9786 13.2095 76.6862 13.1173 76.3309 13.1173C75.9755 13.1173 75.6831 13.2095 75.4537 13.3939C75.2243 13.5783 75.0545 13.8201 74.9443 14.1192C74.8341 14.4184 74.779 14.7411 74.779 15.0874C74.779 15.4338 74.8341 15.7554 74.9443 16.0523C75.0545 16.3492 75.2243 16.5887 75.4537 16.7709C75.6831 16.953 75.9755 17.0441 76.3309 17.0441ZM80.892 17.6514L79.3131 12.4695H80.1498L81.2698 16.4369H81.3238L82.4303 12.4695H83.2805L84.3735 16.4234H84.4275L85.5475 12.4695H86.3841L84.8053 17.6514H84.0226L82.8891 13.6705H82.8082L81.6746 17.6514H80.892ZM90.1086 17.6514V12.4695H90.9047V17.6514H90.1086ZM90.5134 11.6059C90.3582 11.6059 90.2244 11.5531 90.1119 11.4474C90.0017 11.3416 89.9466 11.2146 89.9466 11.0661C89.9466 10.9177 90.0017 10.7906 90.1119 10.6849C90.2244 10.5792 90.3582 10.5264 90.5134 10.5264C90.6686 10.5264 90.8013 10.5792 90.9115 10.6849C91.0239 10.7906 91.0802 10.9177 91.0802 11.0661C91.0802 11.2146 91.0239 11.3416 90.9115 11.4474C90.8013 11.5531 90.6686 11.6059 90.5134 11.6059ZM93.1591 14.5342V17.6514H92.363V12.4695H93.1321V13.2792H93.1996C93.3211 13.0161 93.5055 12.8047 93.7529 12.645C94.0003 12.483 94.3196 12.4021 94.711 12.4021C95.0618 12.4021 95.3688 12.474 95.632 12.618C95.8951 12.7597 96.0998 12.9756 96.246 13.2657C96.3921 13.5536 96.4652 13.9179 96.4652 14.3588V17.6514H95.6691V14.4127C95.6691 14.0057 95.5634 13.6885 95.352 13.4614C95.1406 13.232 94.8504 13.1173 94.4816 13.1173C94.2274 13.1173 94.0003 13.1724 93.8001 13.2826C93.6022 13.3928 93.4459 13.5536 93.3312 13.765C93.2165 13.9764 93.1591 14.2328 93.1591 14.5342Z" fill="white"/>
<path d="M50.148 32.8467C50.0164 32.8467 49.9374 32.794 49.9111 32.6887L47.0149 24.0529C46.971 23.9476 46.9798 23.8511 47.0412 23.7633C47.1027 23.6756 47.1904 23.6317 47.3045 23.6317H49.1475C49.2792 23.6317 49.3582 23.6843 49.3845 23.7897L51.1748 30.148L53.1495 23.7897C53.1846 23.6843 53.2636 23.6317 53.3864 23.6317H54.9266C55.0583 23.6317 55.1373 23.6843 55.1636 23.7897L57.1382 30.148L58.9418 23.7897C58.9681 23.6843 59.0471 23.6317 59.1787 23.6317H61.0217C61.127 23.6317 61.2104 23.6756 61.2718 23.7633C61.3333 23.8511 61.3464 23.9476 61.3113 24.0529L58.4283 32.6887C58.3845 32.794 58.3055 32.8467 58.1914 32.8467H56.2826C56.1597 32.8467 56.0807 32.794 56.0456 32.6887L54.1631 26.8569L52.2806 32.6887C52.2367 32.794 52.1578 32.8467 52.0437 32.8467H50.148ZM64.9415 33.0573C63.783 33.0573 62.8484 32.715 62.1375 32.0305C61.4266 31.3372 61.0712 30.4245 61.0712 29.2923C61.0712 28.1251 61.4047 27.2036 62.0717 26.5278C62.7299 25.8608 63.6294 25.5273 64.7703 25.5273C65.7972 25.5273 66.609 25.8959 67.2057 26.6331C67.8025 27.3879 68.1009 28.4235 68.1009 29.7399C68.1009 29.9067 68.0131 29.99 67.8376 29.99H63.0985C63.2564 31.0081 63.9147 31.5171 65.0731 31.5171C65.863 31.5171 66.6177 31.3547 67.3374 31.03C67.4076 30.9949 67.4778 30.9949 67.548 31.03C67.6094 31.0651 67.6402 31.1222 67.6402 31.2011V32.3991C67.6402 32.5044 67.5919 32.579 67.4953 32.6229C66.8108 32.9125 65.9595 33.0573 64.9415 33.0573ZM66.2447 28.6999C66.2447 28.2348 66.0999 27.8574 65.8103 27.5678C65.5295 27.287 65.1828 27.1465 64.7703 27.1465C64.3228 27.1465 63.9498 27.287 63.6514 27.5678C63.353 27.8486 63.1687 28.226 63.0985 28.6999H66.2447ZM73.4704 33.0441C72.5401 33.0441 71.8249 32.7106 71.3246 32.0437V32.5834C71.3246 32.7589 71.2369 32.8467 71.0613 32.8467H69.6264C69.4509 32.8467 69.3631 32.7589 69.3631 32.5834V22.5785C69.3631 22.403 69.4509 22.3153 69.6264 22.3153H71.0613C71.2369 22.3153 71.3246 22.403 71.3246 22.5785V26.5147C71.8073 25.8564 72.5226 25.5273 73.4704 25.5273C74.5235 25.5273 75.3617 25.8652 75.9848 26.541C76.6079 27.2255 76.9194 28.1339 76.9194 29.266C76.9194 30.4069 76.6079 31.3196 75.9848 32.0042C75.3617 32.6975 74.5235 33.0441 73.4704 33.0441ZM73.1281 31.3328C73.6898 31.3328 74.1374 31.1485 74.4709 30.7799C74.8044 30.4113 74.9711 29.911 74.9711 29.2792C74.9711 28.6473 74.8044 28.147 74.4709 27.7784C74.1374 27.4186 73.6898 27.2387 73.1281 27.2387C72.5752 27.2387 72.1364 27.4186 71.8117 27.7784C71.487 28.147 71.3246 28.6473 71.3246 29.2792C71.3246 29.911 71.487 30.4113 71.8117 30.7799C72.1452 31.1485 72.584 31.3328 73.1281 31.3328ZM85.8119 33.0441C84.8816 33.0441 84.1664 32.7106 83.6661 32.0437V32.5834C83.6661 32.7589 83.5784 32.8467 83.4028 32.8467H81.9679C81.7924 32.8467 81.7047 32.7589 81.7047 32.5834V22.5785C81.7047 22.403 81.7924 22.3153 81.9679 22.3153H83.4028C83.5784 22.3153 83.6661 22.403 83.6661 22.5785V26.5147C84.1488 25.8564 84.8641 25.5273 85.8119 25.5273C86.8651 25.5273 87.7032 25.8652 88.3263 26.541C88.9494 27.2255 89.261 28.1339 89.261 29.266C89.261 30.4069 88.9494 31.3196 88.3263 32.0042C87.7032 32.6975 86.8651 33.0441 85.8119 33.0441ZM85.4696 31.3328C86.0313 31.3328 86.4789 31.1485 86.8124 30.7799C87.1459 30.4113 87.3126 29.911 87.3126 29.2792C87.3126 28.6473 87.1459 28.147 86.8124 27.7784C86.4789 27.4186 86.0313 27.2387 85.4696 27.2387C84.9167 27.2387 84.4779 27.4186 84.1532 27.7784C83.8285 28.147 83.6661 28.6473 83.6661 29.2792C83.6661 29.911 83.8285 30.4113 84.1532 30.7799C84.4867 31.1485 84.9255 31.3328 85.4696 31.3328ZM90.7998 32.8335C90.6243 32.8335 90.5366 32.7458 90.5366 32.5702V26.0013C90.5366 25.8257 90.6243 25.738 90.7998 25.738H92.2347C92.4103 25.738 92.498 25.8257 92.498 26.0013V26.7121C92.9895 25.9925 93.7837 25.6019 94.8808 25.5405C95.0651 25.5229 95.1572 25.6107 95.1572 25.8038V27.1992C95.1572 27.3747 95.0651 27.4625 94.8808 27.4625C93.2923 27.4888 92.498 28.0373 92.498 29.108V32.5702C92.498 32.7458 92.4103 32.8335 92.2347 32.8335H90.7998ZM99.2262 33.0441C98.0765 33.0441 97.155 32.6975 96.4617 32.0042C95.7684 31.3196 95.4217 30.4069 95.4217 29.266C95.4217 28.1339 95.7684 27.2255 96.4617 26.541C97.155 25.8652 98.0765 25.5273 99.2262 25.5273C100.376 25.5273 101.297 25.8652 101.991 26.541C102.684 27.2255 103.031 28.1339 103.031 29.266C103.031 30.4069 102.684 31.3196 101.991 32.0042C101.297 32.6975 100.376 33.0441 99.2262 33.0441ZM99.2262 31.3328C99.7879 31.3328 100.235 31.1441 100.569 30.7667C100.902 30.3981 101.069 29.9023 101.069 29.2792C101.069 28.656 100.902 28.1602 100.569 27.7916C100.235 27.423 99.7879 27.2387 99.2262 27.2387C98.6645 27.2387 98.2169 27.423 97.8835 27.7916C97.55 28.1602 97.3832 28.656 97.3832 29.2792C97.3832 29.9023 97.55 30.3981 97.8835 30.7667C98.2169 31.1441 98.6645 31.3328 99.2262 31.3328ZM105.911 32.8335C105.797 32.8335 105.722 32.7765 105.687 32.6624L103.37 26.1329C103.335 26.0276 103.344 25.9354 103.397 25.8564C103.458 25.7775 103.541 25.738 103.647 25.738H105.187C105.318 25.738 105.397 25.7994 105.424 25.9223L106.911 30.7272L108.386 25.9223C108.421 25.7994 108.5 25.738 108.623 25.738H110.031C110.163 25.738 110.242 25.7994 110.268 25.9223L111.769 30.7272L113.23 25.9223C113.283 25.7994 113.362 25.738 113.467 25.738H115.021C115.135 25.738 115.222 25.7775 115.284 25.8564C115.337 25.9354 115.341 26.0276 115.297 26.1329L112.967 32.6624C112.941 32.7765 112.866 32.8335 112.743 32.8335H110.94C110.826 32.8335 110.751 32.7765 110.716 32.6624L109.334 28.6604L107.938 32.6624C107.912 32.7765 107.837 32.8335 107.714 32.8335H105.911ZM119.013 33.0573C117.96 33.0573 116.981 32.8774 116.077 32.5176C115.867 32.4386 115.761 32.2806 115.761 32.0437V30.9642C115.761 30.6219 115.906 30.5517 116.196 30.7536C116.907 31.2362 117.846 31.4776 119.013 31.4776C119.996 31.4776 120.487 31.2319 120.487 30.7404C120.487 30.4683 120.237 30.284 119.737 30.1875C119.57 30.1524 119.316 30.1173 118.973 30.0822C118.552 30.0383 118.258 30.0032 118.091 29.9769C117.354 29.8716 116.801 29.6829 116.433 29.4108C115.933 29.051 115.682 28.5112 115.682 27.7916C115.682 27.1071 115.985 26.5585 116.591 26.1461C117.188 25.7336 117.964 25.5273 118.921 25.5273C119.956 25.5273 120.834 25.7029 121.554 26.0539C121.764 26.1504 121.87 26.3084 121.87 26.5278V27.6205C121.87 27.8574 121.76 27.9057 121.541 27.7653C120.838 27.3265 120.027 27.1071 119.105 27.1071C118.096 27.1071 117.591 27.3528 117.591 27.8443C117.591 28.0988 117.846 28.2787 118.355 28.384C118.513 28.4103 118.767 28.4454 119.118 28.4893C119.531 28.542 119.829 28.5858 120.013 28.6209C121.628 28.893 122.436 29.617 122.436 30.7931C122.436 31.4776 122.129 32.0261 121.514 32.4386C120.9 32.8511 120.066 33.0573 119.013 33.0573ZM127.073 33.0573C125.915 33.0573 124.98 32.715 124.269 32.0305C123.558 31.3372 123.203 30.4245 123.203 29.2923C123.203 28.1251 123.536 27.2036 124.203 26.5278C124.862 25.8608 125.761 25.5273 126.902 25.5273C127.929 25.5273 128.741 25.8959 129.338 26.6331C129.934 27.3879 130.233 28.4235 130.233 29.7399C130.233 29.9067 130.145 29.99 129.969 29.99H125.23C125.388 31.0081 126.046 31.5171 127.205 31.5171C127.995 31.5171 128.75 31.3547 129.469 31.03C129.539 30.9949 129.61 30.9949 129.68 31.03C129.741 31.0651 129.772 31.1222 129.772 31.2011V32.3991C129.772 32.5044 129.724 32.579 129.627 32.6229C128.943 32.9125 128.091 33.0573 127.073 33.0573ZM128.377 28.6999C128.377 28.2348 128.232 27.8574 127.942 27.5678C127.661 27.287 127.315 27.1465 126.902 27.1465C126.455 27.1465 126.082 27.287 125.783 27.5678C125.485 27.8486 125.301 28.226 125.23 28.6999H128.377ZM131.758 32.8335C131.583 32.8335 131.495 32.7458 131.495 32.5702V26.0013C131.495 25.8257 131.583 25.738 131.758 25.738H133.193C133.369 25.738 133.456 25.8257 133.456 26.0013V26.7121C133.948 25.9925 134.742 25.6019 135.839 25.5405C136.023 25.5229 136.116 25.6107 136.116 25.8038V27.1992C136.116 27.3747 136.023 27.4625 135.839 27.4625C134.251 27.4888 133.456 28.0373 133.456 29.108V32.5702C133.456 32.7458 133.369 32.8335 133.193 32.8335H131.758Z" fill="white"/>
</svg>
