<svg width="14" height="13" viewBox="0 0 14 13" fill="none" xmlns="http://www.w3.org/2000/svg">
<path d="M13.7495 7.26562L8.24951 12.5156C7.93701 12.7969 7.46826 12.7969 7.18701 12.4844C6.90576 12.1719 6.90576 11.7031 7.21826 11.4219L11.3745 7.45312H0.749512C0.312012 7.45312 -0.000488281 7.14062 -0.000488281 6.70312C-0.000488281 6.29688 0.312012 5.95312 0.749512 5.95312H11.3745L7.21826 2.01562C6.90576 1.73438 6.90576 1.23438 7.18701 0.953125C7.46826 0.640625 7.96826 0.640625 8.24951 0.921875L13.7495 6.17188C13.9058 6.32812 13.9995 6.51562 13.9995 6.70312C13.9995 6.92188 13.9058 7.10938 13.7495 7.26562Z" fill="#0A0A0A"/>
</svg>
