<svg width="21" height="22" viewBox="0 0 21 22" fill="none" xmlns="http://www.w3.org/2000/svg">
<path d="M12.3503 21.402L18.0101 18.1335C19.3898 17.3363 20.24 15.8634 20.24 14.2689V7.73112C20.24 6.13731 19.3898 4.66374 18.0101 3.86647L12.3503 0.597953C10.9705 -0.199318 9.2702 -0.199318 7.88969 0.597953L2.22995 3.86647C0.850163 4.66374 0 6.13658 0 7.73112V14.2689C0 15.8627 0.850163 17.3363 2.22995 18.1335L7.88969 21.402C9.26947 22.1993 10.9698 22.1993 12.3503 21.402Z" fill="url(#paint0_linear_9269_13093)"/>
<path d="M10.12 22C9.32487 22 8.52973 21.7948 7.82058 21.3845L2.30013 18.1895C0.881112 17.3682 0 15.838 0 14.196V7.80528C0 6.16326 0.881112 4.63309 2.29942 3.81172L7.82058 0.616023C9.23889 -0.205341 11.0018 -0.205341 12.4201 0.616023L17.9406 3.81101C19.3589 4.63238 20.24 6.16255 20.24 7.80457V14.1953C20.24 15.8373 19.3589 17.3674 17.9406 18.1888L12.4201 21.3838C11.711 21.7941 10.9158 21.9993 10.1207 21.9993L10.12 22ZM10.12 0.499195C9.41085 0.499195 8.70169 0.682274 8.06928 1.04843L2.54812 4.24342C1.2833 4.97574 0.497402 6.34064 0.497402 7.80457V14.1953C0.497402 15.6599 1.2833 17.0248 2.54812 17.7564L8.06857 20.9514C9.3334 21.6837 10.9052 21.6837 12.1707 20.9514L17.6912 17.7564C18.956 17.0241 19.7419 15.6592 19.7419 14.1953V7.80457C19.7419 6.33993 18.956 4.97503 17.6912 4.24342L12.1707 1.04843C11.5383 0.682274 10.8292 0.499195 10.12 0.499195Z" fill="black"/>
<path d="M11.7687 18.9055L15.9516 16.4209C16.9715 15.8153 17.6001 14.6958 17.6001 13.4839V8.5154C17.6001 7.30352 16.9715 6.18402 15.9516 5.57844L11.7687 3.09383C10.7488 2.48825 9.49223 2.48825 8.47161 3.09383L4.28866 5.57844C3.26876 6.18402 2.64014 7.30352 2.64014 8.5154V13.4839C2.64014 14.6958 3.26876 15.8153 4.28866 16.4209L8.47161 18.9055C9.49152 19.511 10.748 19.511 11.7687 18.9055Z" fill="url(#paint1_linear_9269_13093)"/>
<path d="M10.1198 19.3596C9.528 19.3596 8.93621 19.2028 8.40871 18.8884L4.35121 16.4722C3.29553 15.844 2.64014 14.6726 2.64014 13.4157V8.58396C2.64014 7.32701 3.29553 6.15561 4.35121 5.5275L8.40871 3.11127C9.4644 2.48244 10.7759 2.48244 11.8316 3.11127L15.8891 5.5275C16.9447 6.15633 17.6001 7.32701 17.6001 8.58396V13.4157C17.6001 14.6726 16.9447 15.844 15.8891 16.4722L11.8316 18.8884C11.3041 19.2028 10.7123 19.3596 10.1205 19.3596H10.1198ZM10.1198 3.10272C9.60543 3.10272 9.09176 3.23889 8.6334 3.51196L4.5759 5.92818C3.65918 6.47431 3.08951 7.4917 3.08951 8.58325V13.415C3.08951 14.5065 3.65918 15.5246 4.5759 16.07L8.6334 18.4863C9.55012 19.0324 10.6895 19.0324 11.6069 18.4863L15.6644 16.07C16.5811 15.5239 17.1508 14.5065 17.1508 13.415V8.58325C17.1508 7.4917 16.5811 6.47359 15.6644 5.92818L11.6069 3.51196C11.1485 3.23889 10.6342 3.10272 10.1205 3.10272H10.1198Z" fill="black"/>
<path d="M14.4184 11.7137C14.1116 11.0269 14.0244 10.4404 13.8804 9.76712C14.8773 8.24672 14.5124 6.26495 12.9909 5.30477C12.8652 5.21489 12.7044 5.38566 12.7807 5.52871C13.2403 6.45518 13.0376 7.17944 12.6706 7.58163C11.4114 6.57053 8.82952 6.57127 7.57035 7.58163C7.20267 7.17869 6.99991 6.45518 7.46018 5.52871C7.53656 5.38641 7.37637 5.21489 7.24998 5.30477C5.72857 6.26495 5.36359 8.24746 6.36052 9.76712C6.21656 10.4397 6.12937 11.0269 5.82252 11.7137C5.49674 12.4424 5.27979 13.0528 5.27979 13.6625C5.27979 14.4736 5.5204 15.1282 5.99487 15.6083C7.08101 16.6284 8.63757 16.6883 10.1198 16.7198C11.6 16.6891 13.1613 16.6277 14.2447 15.6083C14.7192 15.129 14.9598 14.4744 14.9598 13.6625C14.9598 13.0521 14.7428 12.4417 14.4171 11.7137H14.4184Z" fill="white"/>
<path d="M14.4184 11.7137C14.1116 11.0269 14.0244 10.4404 13.8804 9.76712C14.8773 8.24672 14.5124 6.26495 12.9909 5.30477C12.8652 5.21489 12.7044 5.38566 12.7807 5.52871C13.2403 6.45518 13.0376 7.17944 12.6706 7.58163C11.4114 6.57053 8.82952 6.57127 7.57035 7.58163C7.20267 7.17869 6.99991 6.45518 7.46018 5.52871C7.53656 5.38641 7.37637 5.21489 7.24998 5.30477C5.72857 6.26495 5.36359 8.24746 6.36052 9.76712C6.21656 10.4397 6.12937 11.0269 5.82252 11.7137C5.49674 12.4424 5.27979 13.0528 5.27979 13.6625C5.27979 14.4736 5.5204 15.1282 5.99487 15.6083C7.08101 16.6284 8.63757 16.6883 10.1198 16.7198C11.6 16.6891 13.1613 16.6277 14.2447 15.6083C14.7192 15.129 14.9598 14.4744 14.9598 13.6625C14.9598 13.0521 14.7428 12.4417 14.4171 11.7137H14.4184ZM8.07997 12.6109C7.65416 12.548 7.31149 12.1676 7.25539 11.6957C7.21822 11.3834 7.30338 11.0935 7.46424 10.8756C7.49465 10.8344 7.55413 10.8239 7.59469 10.8524L9.05054 11.8575C9.09312 11.8867 9.11002 11.9474 9.08906 11.9983C8.91942 12.4072 8.5247 12.6776 8.07929 12.6117L8.07997 12.6109ZM11.9095 14.2886C11.8899 14.2916 11.8669 14.2931 11.8426 14.2931C11.7885 14.2931 11.7243 14.2834 11.6588 14.2617C11.5026 14.4879 11.0552 14.9792 10.1205 14.9792C9.18571 14.9792 8.73828 14.4871 8.58215 14.2617C8.51659 14.2834 8.45238 14.2931 8.39831 14.2931C8.3733 14.2931 8.351 14.2916 8.3314 14.2886C8.25908 14.2782 8.20771 14.204 8.21717 14.1239C8.22664 14.0437 8.2922 13.9868 8.36519 13.9973C8.38074 13.9995 8.46725 14.007 8.55174 13.9636C8.55782 13.9583 8.56187 13.9516 8.56863 13.9479C8.57336 13.9449 8.57877 13.9449 8.58418 13.9426C8.62676 13.9127 8.66731 13.8677 8.693 13.7973C8.72071 13.7224 8.79843 13.6865 8.86602 13.7164C8.93361 13.7471 8.96673 13.8325 8.93902 13.9082C8.9086 13.992 8.86602 14.0572 8.81871 14.1096C8.95794 14.2976 9.33711 14.6796 10.1211 14.6796C10.9052 14.6796 11.2843 14.2984 11.4236 14.1096C11.3756 14.0572 11.3337 13.9913 11.3033 13.9082C11.2755 13.8333 11.308 13.7471 11.3763 13.7164C11.4438 13.6857 11.5216 13.7217 11.5493 13.7973C11.5756 13.8692 11.6162 13.9134 11.6601 13.9441C11.6649 13.9464 11.6703 13.9464 11.6743 13.9494C11.6804 13.9531 11.6845 13.9591 11.6899 13.9636C11.775 14.0078 11.8622 13.9995 11.8771 13.998C11.9494 13.9883 12.0156 14.0452 12.0244 14.1254C12.0332 14.2055 11.9832 14.2789 11.9109 14.2894L11.9095 14.2886ZM12.9855 11.6957C12.9294 12.1676 12.5868 12.548 12.161 12.6109C11.7162 12.6769 11.3215 12.4065 11.1512 11.9975C11.1302 11.9466 11.1471 11.8867 11.1897 11.8567L12.6456 10.8516C12.6868 10.8232 12.7456 10.8336 12.776 10.8748C12.9369 11.0935 13.0214 11.3834 12.9849 11.695L12.9855 11.6957Z" fill="black"/>
<path d="M7.83217 12.3086C7.42736 12.2466 7.10159 11.8715 7.04826 11.4063C7.01292 11.0984 7.09388 10.8126 7.24681 10.5978C7.27572 10.5572 7.33227 10.5468 7.37082 10.5749L8.75488 11.5658C8.79536 11.5946 8.81142 11.6544 8.79151 11.7046C8.63022 12.1078 8.25497 12.3743 7.83153 12.3093L7.83217 12.3086Z" fill="white"/>
<path d="M12.1861 14.0065C12.1634 14.0106 12.1369 14.0127 12.1088 14.0127C12.0463 14.0127 11.9721 13.9993 11.8964 13.9692C11.7161 14.2818 11.1993 14.9607 10.1196 14.9607C9.03993 14.9607 8.52312 14.2808 8.34278 13.9692C8.26706 13.9993 8.19289 14.0127 8.13044 14.0127C8.10156 14.0127 8.07579 14.0106 8.05315 14.0065C7.96962 13.992 7.91029 13.8896 7.92122 13.7788C7.93215 13.6681 8.00787 13.5894 8.09219 13.6039C8.11014 13.607 8.21007 13.6174 8.30765 13.5574C8.31468 13.5501 8.31936 13.5408 8.32717 13.5356C8.33264 13.5315 8.33888 13.5315 8.34513 13.5284C8.39431 13.487 8.44115 13.4249 8.47082 13.3276C8.50282 13.2241 8.5926 13.1744 8.67067 13.2158C8.74874 13.2583 8.78699 13.3762 8.75498 13.4808C8.71985 13.5967 8.67067 13.6867 8.61602 13.7592C8.77684 14.0189 9.2148 14.5467 10.1204 14.5467C11.026 14.5467 11.4639 14.02 11.6247 13.7592C11.5693 13.6867 11.5209 13.5956 11.4858 13.4808C11.4538 13.3773 11.4913 13.2583 11.5701 13.2158C11.6482 13.1734 11.7379 13.2231 11.77 13.3276C11.8004 13.427 11.8472 13.488 11.898 13.5304C11.9034 13.5335 11.9097 13.5335 11.9144 13.5377C11.9214 13.5429 11.9261 13.5511 11.9323 13.5574C12.0307 13.6184 12.1314 13.607 12.1486 13.605C12.2321 13.5915 12.3086 13.6702 12.3188 13.7809C12.3289 13.8916 12.2711 13.993 12.1876 14.0075L12.1861 14.0065Z" fill="white"/>
<path d="M13.1926 11.407C13.1392 11.8722 12.8134 12.2473 12.4086 12.3093C11.9857 12.3743 11.6104 12.1078 11.4485 11.7046C11.4286 11.6544 11.4446 11.5953 11.4851 11.5658L12.8693 10.5749C12.9085 10.5468 12.9644 10.5572 12.9934 10.5978C13.1463 10.8134 13.2266 11.0991 13.1919 11.4063L13.1926 11.407Z" fill="white"/>
<defs>
<linearGradient id="paint0_linear_9269_13093" x1="1.42349" y1="2.29962" x2="15.0478" y2="15.919" gradientUnits="userSpaceOnUse">
<stop stop-color="#3B3B3B"/>
<stop offset="1"/>
</linearGradient>
<linearGradient id="paint1_linear_9269_13093" x1="10.1201" y1="0.352617" x2="10.1201" y2="19.2215" gradientUnits="userSpaceOnUse">
<stop stop-color="#FFFF00"/>
<stop offset="0.27" stop-color="#ED88F4"/>
<stop offset="0.31" stop-color="#D296E3"/>
<stop offset="0.4" stop-color="#92B8BD"/>
<stop offset="0.49" stop-color="#60D39E"/>
<stop offset="0.57" stop-color="#3CE688"/>
<stop offset="0.63" stop-color="#26F27A"/>
<stop offset="0.68" stop-color="#1EF776"/>
<stop offset="1" stop-color="#005BFF"/>
</linearGradient>
</defs>
</svg>
