<svg width="150" height="46" viewBox="0 0 150 46" fill="none" xmlns="http://www.w3.org/2000/svg">
<path d="M144.444 0.928711H5.55556C2.48731 0.928711 0 3.41602 0 6.48427V39.8176C0 42.8858 2.48731 45.3732 5.55556 45.3732H144.444C147.513 45.3732 150 42.8858 150 39.8176V6.48427C150 3.41602 147.513 0.928711 144.444 0.928711Z" fill="black"/>
<path d="M144.444 1.8176C147.022 1.8176 149.111 3.90649 149.111 6.48427V39.8176C149.111 42.3954 147.022 44.4843 144.444 44.4843H5.55556C2.97778 44.4843 0.888889 42.3954 0.888889 39.8176V6.48427C0.888889 3.90649 2.97778 1.8176 5.55556 1.8176H144.444ZM144.444 0.928711H5.55556C2.5 0.928711 0 3.42871 0 6.48427V39.8176C0 42.8732 2.5 45.3732 5.55556 45.3732H144.444C147.5 45.3732 150 42.8732 150 39.8176V6.48427C150 3.42871 147.5 0.928711 144.444 0.928711Z" fill="#A6A6A6"/>
<path d="M52.6913 12.3034C52.6913 13.2367 52.4136 13.9812 51.858 14.5256C51.2358 15.1812 50.4247 15.5145 49.4136 15.5145C48.4025 15.5145 47.6247 15.1812 46.958 14.5145C46.2913 13.8479 45.958 13.0145 45.958 12.0367C45.958 11.059 46.2913 10.2256 46.958 9.55896C47.6247 8.8923 48.4469 8.54785 49.4136 8.54785C49.9025 8.54785 50.3691 8.63674 50.8025 8.80341C51.2358 8.98118 51.5913 9.22563 51.8691 9.53674L51.258 10.1479C51.058 9.90341 50.7913 9.70341 50.458 9.57007C50.1358 9.42563 49.7802 9.35896 49.4136 9.35896C48.6913 9.35896 48.0691 9.61452 47.5691 10.1145C47.0691 10.6256 46.8247 11.259 46.8247 12.0256C46.8247 12.7923 47.0691 13.4256 47.5691 13.9367C48.0691 14.4367 48.6802 14.6923 49.4136 14.6923C50.0802 14.6923 50.6247 14.5034 51.0691 14.1367C51.5136 13.7701 51.7691 13.2479 51.8358 12.6034H49.4136V11.8034H52.6469C52.6802 11.9812 52.6913 12.1479 52.6913 12.3034Z" fill="white" stroke="white" stroke-width="0.135714" stroke-miterlimit="10"/>
<path d="M57.8166 8.7041V9.52632H54.7833V11.6374H57.5166V12.4374H54.7833V14.5485H57.8166V15.3708H53.9277V8.7041H57.8166Z" fill="white" stroke="white" stroke-width="0.135714" stroke-miterlimit="10"/>
<path d="M61.4244 9.52632V15.3708H60.5688V9.52632H58.7021V8.7041H63.2799V9.52632H61.4133H61.4244Z" fill="white" stroke="white" stroke-width="0.135714" stroke-miterlimit="10"/>
<path d="M67.4571 15.3708H66.6016V8.7041H67.4571V15.3708Z" fill="white" stroke="white" stroke-width="0.135714" stroke-miterlimit="10"/>
<path d="M71.2554 9.52632V15.3708H70.3999V9.52632H68.5332V8.7041H73.111V9.52632H71.2443H71.2554Z" fill="white" stroke="white" stroke-width="0.135714" stroke-miterlimit="10"/>
<path d="M82.7617 12.0367C82.7617 13.0256 82.4284 13.8479 81.7728 14.5145C81.1061 15.1812 80.295 15.5145 79.3284 15.5145C78.3617 15.5145 77.5506 15.1812 76.8839 14.5145C76.2284 13.8479 75.895 13.0256 75.895 12.0367C75.895 11.0479 76.2284 10.2256 76.8839 9.55896C77.5395 8.8923 78.3506 8.54785 79.3284 8.54785C80.3061 8.54785 81.1061 8.88118 81.7728 9.55896C82.4284 10.2256 82.7617 11.0479 82.7617 12.0256V12.0367ZM76.7839 12.0367C76.7839 12.8034 77.0284 13.4479 77.5061 13.9479C77.995 14.4479 78.6061 14.7034 79.3284 14.7034C80.0506 14.7034 80.6617 14.4479 81.1395 13.9479C81.6284 13.4479 81.8728 12.8145 81.8728 12.0367C81.8728 11.259 81.6284 10.6256 81.1395 10.1256C80.6506 9.62563 80.0506 9.37007 79.3284 9.37007C78.6061 9.37007 77.995 9.62563 77.5061 10.1256C77.0172 10.6256 76.7839 11.2701 76.7839 12.0367Z" fill="white" stroke="white" stroke-width="0.135714" stroke-miterlimit="10"/>
<path d="M84.818 15.3708H83.9624V8.7041H85.0068L88.2513 13.893H88.2846L88.2513 12.6041V8.7041H89.1068V15.3708H88.218L84.8291 9.93743H84.7957L84.8291 11.2263V15.3819L84.818 15.3708Z" fill="white" stroke="white" stroke-width="0.135714" stroke-miterlimit="10"/>
<path d="M75.7058 25.0953C73.0947 25.0953 70.9614 27.0842 70.9614 29.8175C70.9614 32.5508 73.0947 34.5397 75.7058 34.5397C78.3169 34.5397 80.4503 32.5397 80.4503 29.8175C80.4503 27.0953 78.3169 25.0953 75.7058 25.0953ZM75.7058 32.6842C74.2725 32.6842 73.0392 31.5064 73.0392 29.8175C73.0392 28.1286 74.2725 26.9508 75.7058 26.9508C77.1392 26.9508 78.3725 28.1175 78.3725 29.8175C78.3725 31.5175 77.1392 32.6842 75.7058 32.6842ZM65.3503 25.0953C62.7392 25.0953 60.6058 27.0842 60.6058 29.8175C60.6058 32.5508 62.7392 34.5397 65.3503 34.5397C67.9614 34.5397 70.0947 32.5397 70.0947 29.8175C70.0947 27.0953 67.9614 25.0953 65.3503 25.0953ZM65.3503 32.6842C63.9169 32.6842 62.6836 31.5064 62.6836 29.8175C62.6836 28.1286 63.9169 26.9508 65.3503 26.9508C66.7836 26.9508 68.0169 28.1175 68.0169 29.8175C68.0169 31.5175 66.7836 32.6842 65.3503 32.6842ZM53.0392 26.5508V28.5508H57.8392C57.6947 29.673 57.3169 30.5064 56.7503 31.073C56.0503 31.773 54.9614 32.5397 53.0503 32.5397C50.0947 32.5397 47.7836 30.1619 47.7836 27.2064C47.7836 24.2508 50.0947 21.873 53.0503 21.873C54.6392 21.873 55.8058 22.4953 56.6614 23.3064L58.0725 21.8953C56.8725 20.7508 55.2836 19.873 53.0392 19.873C48.9947 19.873 45.5947 23.1619 45.5947 27.2175C45.5947 31.273 48.9947 34.5619 53.0392 34.5619C55.2281 34.5619 56.8725 33.8508 58.1614 32.5064C59.4836 31.1842 59.8947 29.3175 59.8947 27.8175C59.8947 27.3508 59.8614 26.9175 59.7836 26.5619H53.0392V26.5508ZM103.384 28.1064C102.995 27.0508 101.795 25.0953 99.3392 25.0953C96.8836 25.0953 94.8836 27.0064 94.8836 29.8175C94.8836 32.4619 96.8836 34.5397 99.5725 34.5397C101.739 34.5397 102.995 33.2175 103.506 32.4508L101.895 31.373C101.361 32.1619 100.628 32.6842 99.5725 32.6842C98.5169 32.6842 97.7614 32.2064 97.2836 31.2508L103.606 28.6397L103.395 28.1064H103.384ZM96.9392 29.6842C96.8836 27.8619 98.3503 26.9286 99.4058 26.9286C100.228 26.9286 100.928 27.3397 101.161 27.9286L96.9392 29.6842ZM91.8058 34.2619H93.8836V20.373H91.8058V34.2619ZM88.4058 26.1508H88.3392C87.8725 25.5953 86.9836 25.0953 85.8503 25.0953C83.4836 25.0953 81.3169 27.173 81.3169 29.8397C81.3169 32.5064 83.4836 34.5508 85.8503 34.5508C86.9725 34.5508 87.8725 34.0508 88.3392 33.473H88.4058V34.1508C88.4058 35.9619 87.4392 36.9286 85.8836 36.9286C84.6169 36.9286 83.8281 36.0175 83.5058 35.2508L81.6947 36.0064C82.2169 37.2619 83.5947 38.7953 85.8836 38.7953C88.3169 38.7953 90.3725 37.3619 90.3725 33.873V25.3842H88.4058V26.1508ZM86.0169 32.6842C84.5836 32.6842 83.3836 31.4842 83.3836 29.8397C83.3836 28.1953 84.5836 26.9619 86.0169 26.9619C87.4503 26.9619 88.5392 28.1842 88.5392 29.8397C88.5392 31.4953 87.4281 32.6842 86.0169 32.6842ZM113.117 20.373H108.15V34.2619H110.228V28.9953H113.128C115.428 28.9953 117.684 27.3286 117.684 24.6842C117.684 22.0397 115.428 20.373 113.128 20.373H113.117ZM113.161 27.0619H110.217V22.2953H113.161C114.717 22.2953 115.595 23.5842 115.595 24.673C115.595 25.7619 114.717 27.0508 113.161 27.0508V27.0619ZM125.984 25.073C124.484 25.073 122.928 25.7397 122.284 27.1953L124.128 27.9619C124.517 27.1953 125.25 26.9397 126.017 26.9397C127.084 26.9397 128.184 27.5842 128.195 28.7286V28.873C127.817 28.6619 127.017 28.3397 126.028 28.3397C124.039 28.3397 122.028 29.4286 122.028 31.4619C122.028 33.3175 123.65 34.5175 125.472 34.5175C126.861 34.5175 127.639 33.8953 128.117 33.1619H128.184V34.2286H130.184V28.9064C130.184 26.4397 128.339 25.0619 125.961 25.0619L125.984 25.073ZM125.728 32.6842C125.05 32.6842 124.106 32.3397 124.106 31.5064C124.106 30.4397 125.284 30.0286 126.306 30.0286C127.217 30.0286 127.65 30.2286 128.195 30.4953C128.039 31.7842 126.928 32.6953 125.728 32.6953V32.6842ZM137.484 25.373L135.106 31.3953H135.039L132.572 25.373H130.339L134.039 33.7953L131.928 38.473H134.095L139.795 25.373H137.495H137.484ZM118.817 34.2619H120.895V20.373H118.817V34.2619Z" fill="white"/>
<path d="M23.0257 22.5072L11.1924 35.0628C11.559 36.4294 12.8035 37.4294 14.2813 37.4294C14.8702 37.4294 15.4257 37.2739 15.9035 36.985L15.9368 36.9628L29.2479 29.285L23.0146 22.4961L23.0257 22.5072Z" fill="#EA4335"/>
<path d="M34.9926 20.3718H34.9815L29.2371 17.0273L22.7593 22.794L29.2593 29.294L34.9815 25.994C35.9815 25.4496 36.6593 24.394 36.6593 23.1829C36.6593 21.9718 35.9926 20.9162 34.9926 20.3829V20.3718Z" fill="#FBBC04"/>
<path d="M11.1844 11.2383C11.1177 11.5049 11.0732 11.7716 11.0732 12.0605V34.2494C11.0732 34.5383 11.1066 34.805 11.1844 35.0716L23.4177 22.8383L11.1844 11.2383Z" fill="#4285F4"/>
<path d="M23.1146 23.1571L29.2368 17.0348L15.9368 9.32372C15.459 9.03483 14.8924 8.86816 14.2813 8.86816C12.8035 8.86816 11.559 9.87928 11.1924 11.2348L23.1146 23.1459V23.1571Z" fill="#34A853"/>
</svg>
