<svg width="40" height="41" viewBox="0 0 40 41" fill="none" xmlns="http://www.w3.org/2000/svg">
<path d="M0 12.2031C0 5.57571 5.37258 0.203125 12 0.203125H28C34.6274 0.203125 40 5.57571 40 12.2031V28.2031C40 34.8305 34.6274 40.2031 28 40.2031H12C5.37258 40.2031 0 34.8305 0 28.2031V12.2031Z" fill="#292929"/>
<path d="M25.7148 11.0156H28.7227L22.1055 18.6211L29.9258 28.8906H23.8242L19.0117 22.6602L13.5547 28.8906H10.5039L17.5938 20.8125L10.1172 11.0156H16.3906L20.6875 16.7305L25.7148 11.0156ZM24.6406 27.0859H26.3164L15.4883 12.7344H13.6836L24.6406 27.0859Z" fill="#F9FEDC"/>
</svg>
