<svg width="15" height="15" viewBox="0 0 15 15" fill="none" xmlns="http://www.w3.org/2000/svg">
<path d="M2.89453 2.14453H1.39453V3.64453H2.89453V2.14453ZM1.39453 0.894531H2.89453C3.58203 0.894531 4.14453 1.45703 4.14453 2.14453V3.64453C4.14453 4.36328 3.58203 4.89453 2.89453 4.89453H1.39453C0.675781 4.89453 0.144531 4.36328 0.144531 3.64453V2.14453C0.144531 1.45703 0.675781 0.894531 1.39453 0.894531ZM2.89453 7.14453H1.39453V8.64453H2.89453V7.14453ZM1.39453 5.89453H2.89453C3.58203 5.89453 4.14453 6.45703 4.14453 7.14453V8.64453C4.14453 9.36328 3.58203 9.89453 2.89453 9.89453H1.39453C0.675781 9.89453 0.144531 9.36328 0.144531 8.64453V7.14453C0.144531 6.45703 0.675781 5.89453 1.39453 5.89453ZM1.39453 12.1445V13.6445H2.89453V12.1445H1.39453ZM0.144531 12.1445C0.144531 11.457 0.675781 10.8945 1.39453 10.8945H2.89453C3.58203 10.8945 4.14453 11.457 4.14453 12.1445V13.6445C4.14453 14.3633 3.58203 14.8945 2.89453 14.8945H1.39453C0.675781 14.8945 0.144531 14.3633 0.144531 13.6445V12.1445ZM7.89453 2.14453H6.39453V3.64453H7.89453V2.14453ZM6.39453 0.894531H7.89453C8.58203 0.894531 9.14453 1.45703 9.14453 2.14453V3.64453C9.14453 4.36328 8.58203 4.89453 7.89453 4.89453H6.39453C5.67578 4.89453 5.14453 4.36328 5.14453 3.64453V2.14453C5.14453 1.45703 5.67578 0.894531 6.39453 0.894531ZM6.39453 7.14453V8.64453H7.89453V7.14453H6.39453ZM5.14453 7.14453C5.14453 6.45703 5.67578 5.89453 6.39453 5.89453H7.89453C8.58203 5.89453 9.14453 6.45703 9.14453 7.14453V8.64453C9.14453 9.36328 8.58203 9.89453 7.89453 9.89453H6.39453C5.67578 9.89453 5.14453 9.36328 5.14453 8.64453V7.14453ZM7.89453 12.1445H6.39453V13.6445H7.89453V12.1445ZM6.39453 10.8945H7.89453C8.58203 10.8945 9.14453 11.457 9.14453 12.1445V13.6445C9.14453 14.3633 8.58203 14.8945 7.89453 14.8945H6.39453C5.67578 14.8945 5.14453 14.3633 5.14453 13.6445V12.1445C5.14453 11.457 5.67578 10.8945 6.39453 10.8945ZM11.3945 2.14453V3.64453H12.8945V2.14453H11.3945ZM10.1445 2.14453C10.1445 1.45703 10.6758 0.894531 11.3945 0.894531H12.8945C13.582 0.894531 14.1445 1.45703 14.1445 2.14453V3.64453C14.1445 4.36328 13.582 4.89453 12.8945 4.89453H11.3945C10.6758 4.89453 10.1445 4.36328 10.1445 3.64453V2.14453ZM12.8945 7.14453H11.3945V8.64453H12.8945V7.14453ZM11.3945 5.89453H12.8945C13.582 5.89453 14.1445 6.45703 14.1445 7.14453V8.64453C14.1445 9.36328 13.582 9.89453 12.8945 9.89453H11.3945C10.6758 9.89453 10.1445 9.36328 10.1445 8.64453V7.14453C10.1445 6.45703 10.6758 5.89453 11.3945 5.89453ZM11.3945 12.1445V13.6445H12.8945V12.1445H11.3945ZM10.1445 12.1445C10.1445 11.457 10.6758 10.8945 11.3945 10.8945H12.8945C13.582 10.8945 14.1445 11.457 14.1445 12.1445V13.6445C14.1445 14.3633 13.582 14.8945 12.8945 14.8945H11.3945C10.6758 14.8945 10.1445 14.3633 10.1445 13.6445V12.1445Z" fill="white"/>
</svg>
