<svg width="128" height="58" viewBox="0 0 128 58" fill="none" xmlns="http://www.w3.org/2000/svg">
<path d="M22.4053 39.4167L32.4662 33.6086C34.9189 32.1919 36.4302 29.5747 36.4302 26.7412V15.1238C36.4302 12.2916 34.9189 9.67311 32.4662 8.25638L22.4053 2.44829C19.9526 1.03156 16.9301 1.03156 14.476 2.44829L4.41517 8.25638C1.96244 9.67311 0.451172 12.2903 0.451172 15.1238V26.7412C0.451172 29.5734 1.96244 32.1919 4.41517 33.6086L14.476 39.4167C16.9288 40.8335 19.9513 40.8335 22.4053 39.4167Z" fill="url(#paint0_linear_311_8657)"/>
<path fill-rule="evenodd" clip-rule="evenodd" d="M22.6341 2.052C22.6341 2.05198 22.6342 2.05202 22.6341 2.052L32.6949 7.86003C35.2878 9.35775 36.8855 12.1259 36.8855 15.12V26.7374C36.8855 29.7328 35.2879 32.4996 32.695 33.9973L22.634 39.8054C20.0398 41.3031 16.8445 41.3032 14.2515 39.8054C14.2515 39.8054 14.2515 39.8055 14.2515 39.8054L4.19064 33.9974C1.59771 32.4996 0 29.7315 0 26.7374V15.12C0 12.1246 1.59765 9.35778 4.19055 7.86009L14.2515 2.05195C16.8457 0.554301 20.0411 0.554277 22.6341 2.052ZM22.1807 2.83697C19.8683 1.50128 17.0186 1.50122 14.7047 2.83702L4.64396 8.64505C4.64392 8.64507 4.64399 8.64503 4.64396 8.64505C2.33144 9.98083 0.906501 12.4485 0.906501 15.12V26.7374C0.906501 29.4077 2.33142 31.8766 4.64396 33.2123L14.7047 39.0204C17.0172 40.3561 19.867 40.3562 22.1808 39.0204L32.2416 33.2123C34.5542 31.8766 35.979 29.409 35.979 26.7374V15.12C35.979 12.4497 34.5542 9.98087 32.2417 8.6451C32.2416 8.64509 32.2417 8.64512 32.2417 8.6451L22.1807 2.83697Z" fill="black"/>
<path d="M21.4399 34.8927L29.0403 30.5039C30.8934 29.4343 32.0356 27.4568 32.0356 25.3162V16.5399C32.0356 14.3993 30.8934 12.4218 29.0403 11.3521L21.4399 6.96339C19.5868 5.89371 17.3037 5.89371 15.4492 6.96339L7.84886 11.3521C5.99571 12.4218 4.85352 14.3993 4.85352 16.5399V25.3162C4.85352 27.4568 5.99571 29.4343 7.84886 30.5039L15.4492 34.8927C17.3024 35.9624 19.5855 35.9624 21.4399 34.8927Z" fill="url(#paint1_linear_311_8657)"/>
<path fill-rule="evenodd" clip-rule="evenodd" d="M15.2379 6.59977C17.2225 5.45505 19.6659 5.45498 21.6493 6.59983L29.2497 10.9886C29.2497 10.9886 29.2497 10.9886 29.2497 10.9886C31.233 12.1334 32.4555 14.2499 32.4555 16.5409V25.3171C32.4555 27.6081 31.233 29.7246 29.2497 30.8694L21.6494 35.2581L21.6492 35.2582C19.6647 36.4029 17.2212 36.403 15.2378 35.2582L7.63745 30.8694C5.65408 29.7246 4.43164 27.6081 4.43164 25.3171V16.5409C4.43164 14.2499 5.65405 12.1335 7.63739 10.9886C7.63737 10.9886 7.63741 10.9886 7.63739 10.9886L15.2379 6.59977ZM15.6587 7.32882C15.6586 7.32885 15.6586 7.32888 15.6585 7.32891L8.05832 11.7176C6.3354 12.7121 5.27339 14.5506 5.27339 16.5409V25.3171C5.27339 27.3074 6.33534 29.1459 8.05826 30.1404L15.6586 34.5291C17.3815 35.5236 19.5043 35.5237 21.2286 34.5291L28.8288 30.1404C30.5517 29.1459 31.6137 27.3074 31.6137 25.3171V16.5409C31.6137 14.5506 30.5518 12.7121 28.8289 11.7176L21.2285 7.32885C19.5057 6.33439 17.383 6.33429 15.6587 7.32882Z" fill="black"/>
<path d="M26.6777 22.395C26.0898 21.2075 25.9227 20.1935 25.6469 19.0293C27.557 16.4005 26.8577 12.9739 23.9426 11.3137C23.7018 11.1583 23.3936 11.4536 23.5399 11.7009C24.4205 13.3028 24.032 14.5551 23.3288 15.2505C20.9162 13.5023 15.9693 13.5036 13.5567 15.2505C12.8522 14.5538 12.4637 13.3028 13.3456 11.7009C13.492 11.4549 13.1851 11.1583 12.9429 11.3137C10.0278 12.9739 9.32855 16.4018 11.2387 19.0293C10.9628 20.1922 10.7958 21.2075 10.2079 22.395C9.58366 23.6551 9.16797 24.7105 9.16797 25.7646C9.16797 27.1671 9.62899 28.299 10.5381 29.1291C12.6191 30.8928 15.6015 30.9964 18.4415 31.0508C21.2775 30.9977 24.269 30.8916 26.3449 29.1291C27.254 28.3003 27.715 27.1684 27.715 25.7646C27.715 24.7092 27.2993 23.6538 26.6751 22.395H26.6777Z" fill="#EAFE96"/>
<path d="M26.6777 22.0552C26.0898 20.8677 25.9227 19.8537 25.6469 18.6895C27.557 16.0606 26.8577 12.6341 23.9426 10.9739C23.7018 10.8185 23.3936 11.1137 23.5399 11.3611C24.4205 12.963 24.032 14.2153 23.3288 14.9107C20.9162 13.1624 15.9693 13.1637 13.5567 14.9107C12.8522 14.214 12.4637 12.963 13.3456 11.3611C13.492 11.115 13.1851 10.8185 12.9429 10.9739C10.0278 12.6341 9.32855 16.0619 11.2387 18.6895C10.9628 19.8524 10.7958 20.8677 10.2079 22.0552C9.58366 23.3152 9.16797 24.3707 9.16797 25.4248C9.16797 26.8273 9.62899 27.9591 10.5381 28.7892C12.6191 30.553 15.6015 30.6566 18.4415 30.711C21.2775 30.6579 24.269 30.5517 26.3449 28.7892C27.254 27.9604 27.715 26.8286 27.715 25.4248C27.715 24.3694 27.2993 23.3139 26.6751 22.0552H26.6777ZM14.5332 23.6066C13.7173 23.4978 13.0607 22.84 12.9533 22.0241C12.882 21.4841 13.0452 20.9829 13.3534 20.6061C13.4117 20.5349 13.5257 20.5167 13.6034 20.5659L16.3928 22.3038C16.4744 22.3543 16.5067 22.4592 16.4666 22.5473C16.1416 23.2544 15.3853 23.7219 14.5319 23.6079L14.5332 23.6066ZM21.8706 26.5074C21.8331 26.5126 21.7891 26.5152 21.7424 26.5152C21.6388 26.5152 21.5158 26.4984 21.3902 26.4608C21.0911 26.8519 20.2338 27.7014 18.4428 27.7014C16.6518 27.7014 15.7945 26.8506 15.4953 26.4608C15.3697 26.4984 15.2467 26.5152 15.1431 26.5152C15.0952 26.5152 15.0525 26.5126 15.0149 26.5074C14.8763 26.4893 14.7779 26.3611 14.796 26.2225C14.8142 26.0839 14.9398 25.9855 15.0797 26.0037C15.1094 26.0075 15.2752 26.0205 15.4371 25.9454C15.4487 25.9363 15.4565 25.9247 15.4694 25.9182C15.4785 25.913 15.4889 25.913 15.4992 25.9091C15.5808 25.8573 15.6585 25.7796 15.7077 25.6579C15.7608 25.5284 15.9097 25.4662 16.0392 25.518C16.1687 25.5711 16.2322 25.7188 16.1791 25.8496C16.1208 25.9946 16.0392 26.1073 15.9486 26.1979C16.2154 26.523 16.9419 27.1834 18.4441 27.1834C19.9463 27.1834 20.6728 26.5243 20.9395 26.1979C20.8476 26.1073 20.7673 25.9933 20.709 25.8496C20.6559 25.7201 20.7181 25.5711 20.8489 25.518C20.9784 25.4649 21.1273 25.5271 21.1804 25.6579C21.2309 25.7822 21.3086 25.8586 21.3928 25.9117C21.4019 25.9156 21.4122 25.9156 21.42 25.9208C21.4316 25.9273 21.4394 25.9376 21.4498 25.9454C21.6129 26.0218 21.78 26.0075 21.8085 26.005C21.947 25.9881 22.074 26.0865 22.0908 26.2251C22.1076 26.3637 22.0118 26.4906 21.8732 26.5087L21.8706 26.5074ZM23.9323 22.0241C23.8248 22.84 23.1682 23.4978 22.3524 23.6066C21.5003 23.7206 20.744 23.2531 20.4177 22.546C20.3775 22.4579 20.4099 22.3543 20.4915 22.3025L23.2809 20.5647C23.3599 20.5154 23.4726 20.5336 23.5308 20.6048C23.839 20.9829 24.0009 21.4841 23.931 22.0228L23.9323 22.0241Z" fill="black"/>
<path d="M14.5359 23.6065C13.7201 23.4977 13.0635 22.8398 12.956 22.024C12.8848 21.484 13.048 20.9828 13.3562 20.6059C13.4144 20.5347 13.5284 20.5166 13.6061 20.5658L16.3955 22.3037C16.4771 22.3542 16.5095 22.4591 16.4694 22.5471C16.1443 23.2542 15.388 23.7217 14.5346 23.6078L14.5359 23.6065Z" fill="#EAFE96"/>
<path d="M21.8717 26.5074C21.8341 26.5125 21.7901 26.5151 21.7435 26.5151C21.6399 26.5151 21.5168 26.4983 21.3912 26.4607C21.0921 26.8518 20.2348 27.7014 18.4438 27.7014C16.6528 27.7014 15.7955 26.8505 15.4964 26.4607C15.3708 26.4983 15.2477 26.5151 15.1441 26.5151C15.0962 26.5151 15.0535 26.5125 15.0159 26.5074C14.8774 26.4892 14.7789 26.361 14.7971 26.2225C14.8152 26.0839 14.9408 25.9855 15.0807 26.0036C15.1105 26.0075 15.2762 26.0204 15.4381 25.9453C15.4498 25.9363 15.4575 25.9246 15.4705 25.9181C15.4795 25.913 15.4899 25.913 15.5003 25.9091C15.5818 25.8573 15.6595 25.7796 15.7088 25.6578C15.7619 25.5283 15.9108 25.4662 16.0403 25.518C16.1698 25.5711 16.2332 25.7187 16.1801 25.8495C16.1219 25.9945 16.0403 26.1072 15.9496 26.1979C16.2164 26.5229 16.9429 27.1834 18.4451 27.1834C19.9473 27.1834 20.6738 26.5242 20.9406 26.1979C20.8486 26.1072 20.7683 25.9932 20.7101 25.8495C20.657 25.72 20.7191 25.5711 20.8499 25.518C20.9794 25.4649 21.1283 25.527 21.1814 25.6578C21.2319 25.7822 21.3096 25.8586 21.3938 25.9117C21.4029 25.9155 21.4132 25.9155 21.421 25.9207C21.4327 25.9272 21.4404 25.9376 21.4508 25.9453C21.614 26.0217 21.781 26.0075 21.8095 26.0049C21.9481 25.9881 22.075 26.0865 22.0918 26.2251C22.1087 26.3636 22.0128 26.4905 21.8743 26.5087L21.8717 26.5074Z" fill="#EAFE96"/>
<path d="M23.9303 22.0253C23.8228 22.8411 23.1662 23.499 22.3504 23.6078C21.4983 23.7217 20.742 23.2542 20.4156 22.5471C20.3755 22.4591 20.4079 22.3555 20.4895 22.3037L23.2789 20.5658C23.3579 20.5166 23.4705 20.5347 23.5288 20.6059C23.837 20.9841 23.9989 21.4852 23.929 22.024L23.9303 22.0253Z" fill="#EAFE96"/>
<path d="M48.5657 29.4287C48.2457 29.4287 48.0857 29.2687 48.0857 28.9487V13.1087C48.0857 12.7887 48.2457 12.6287 48.5657 12.6287H54.7337C54.9577 12.6287 55.1017 12.7247 55.1657 12.9167L58.6217 22.4687L62.0777 12.9167C62.1577 12.7247 62.3017 12.6287 62.5097 12.6287H68.6777C68.9977 12.6287 69.1577 12.7887 69.1577 13.1087V28.9487C69.1577 29.2687 68.9977 29.4287 68.6777 29.4287H65.0777C64.7577 29.4287 64.5977 29.2687 64.5977 28.9487V18.6767L60.3257 29.1647C60.2617 29.3407 60.1257 29.4287 59.9177 29.4287H57.3257C57.1177 29.4287 56.9817 29.3407 56.9177 29.1647L52.6457 18.6767V28.9487C52.6457 29.2687 52.4857 29.4287 52.1657 29.4287H48.5657ZM71.0361 29.4287C70.7961 29.4287 70.6361 29.3407 70.5561 29.1647C70.4601 28.9727 70.4921 28.7887 70.6521 28.6127L76.7001 21.0287L70.6521 13.4447C70.4921 13.2687 70.4601 13.0847 70.5561 12.8927C70.6361 12.7167 70.7961 12.6287 71.0361 12.6287H75.7881C75.9161 12.6287 76.0201 12.6767 76.1001 12.7727L79.8201 17.6207L83.5401 12.7727C83.6041 12.6767 83.7081 12.6287 83.8521 12.6287H88.6041C88.8281 12.6287 88.9881 12.7167 89.0841 12.8927C89.1641 13.0847 89.1321 13.2687 88.9881 13.4447L82.9401 21.0287L88.9881 28.6127C89.1321 28.7887 89.1641 28.9727 89.0841 29.1647C88.9881 29.3407 88.8281 29.4287 88.6041 29.4287H83.8521C83.7081 29.4287 83.6041 29.3807 83.5401 29.2847L79.8201 24.4367L76.1001 29.2847C76.0201 29.3807 75.9161 29.4287 75.7881 29.4287H71.0361ZM91.1282 29.4287C90.8082 29.4287 90.6482 29.2687 90.6482 28.9487V13.1087C90.6482 12.7887 90.8082 12.6287 91.1282 12.6287H97.2962C97.5202 12.6287 97.6642 12.7247 97.7282 12.9167L101.184 22.4687L104.64 12.9167C104.72 12.7247 104.864 12.6287 105.072 12.6287H111.24C111.56 12.6287 111.72 12.7887 111.72 13.1087V28.9487C111.72 29.2687 111.56 29.4287 111.24 29.4287H107.64C107.32 29.4287 107.16 29.2687 107.16 28.9487V18.6767L102.888 29.1647C102.824 29.3407 102.688 29.4287 102.48 29.4287H99.8882C99.6802 29.4287 99.5442 29.3407 99.4802 29.1647L95.2082 18.6767V28.9487C95.2082 29.2687 95.0482 29.4287 94.7282 29.4287H91.1282Z" fill="#F9FEDC"/>
<path opacity="0.5" d="M4.86691 57.0126C3.55358 57.0155 2.49944 56.6411 1.70448 55.8895C0.909514 55.1378 0.510683 54.1387 0.507985 52.892C0.505301 51.652 0.89981 50.6545 1.69151 49.8995C2.48323 49.1511 3.53575 48.7755 4.84908 48.7726C6.16241 48.7698 7.21655 49.1408 8.0115 49.8858C8.80646 50.6374 9.20528 51.6332 9.20797 52.8732C9.21066 54.1199 8.81616 55.1207 8.02446 55.8758C7.23276 56.6308 6.18024 57.0098 4.86691 57.0126ZM4.86538 56.3026C5.93871 56.3003 6.80137 55.9884 7.45336 55.367C8.09867 54.7389 8.4202 53.9082 8.41797 52.8749C8.41575 51.8482 8.09063 51.0256 7.44262 50.407C6.78795 49.7884 5.92395 49.4803 4.85062 49.4826C3.77729 49.485 2.91463 49.7968 2.26264 50.4182C1.61731 51.0396 1.29576 51.8637 1.29798 52.8903C1.30022 53.9237 1.62535 54.753 2.27337 55.3782C2.92804 55.9968 3.79205 56.3049 4.86538 56.3026ZM4.993 55.2023C4.26633 55.2039 3.6792 54.9918 3.23162 54.5661C2.77734 54.1338 2.54944 53.561 2.54789 52.8476C2.54635 52.1343 2.77178 51.5605 3.22417 51.1262C3.6699 50.6919 4.25609 50.4739 4.98276 50.4723C5.58942 50.471 6.04963 50.5667 6.36338 50.7594C6.43679 50.7925 6.47356 50.8391 6.47369 50.8991L6.47503 51.5191C6.47513 51.5658 6.45521 51.6025 6.41527 51.6292C6.37531 51.6493 6.33197 51.6461 6.28524 51.6195C5.93149 51.427 5.49795 51.3312 4.98462 51.3323C4.53795 51.3333 4.18158 51.4707 3.91551 51.7447C3.64944 52.0186 3.5169 52.3855 3.51789 52.8455C3.51887 53.2989 3.653 53.6652 3.92027 53.9447C4.18753 54.2174 4.54449 54.3533 4.99116 54.3523C5.43116 54.3514 5.8676 54.2504 6.3005 54.0495C6.34713 54.0294 6.39046 54.0293 6.4305 54.0492C6.47056 54.0758 6.49064 54.1124 6.49074 54.1591L6.49211 54.7891C6.49224 54.8491 6.46234 54.8958 6.40241 54.9293C5.9628 55.1102 5.493 55.2013 4.993 55.2023ZM12.6464 56.1758C12.5597 56.176 12.493 56.1428 12.4462 56.0762C12.3993 56.0096 12.3925 55.9363 12.4257 55.8562L15.0015 49.2907C15.028 49.2106 15.0879 49.1705 15.1812 49.1703L16.8712 49.1666C16.9579 49.1664 17.018 49.2063 17.0515 49.2862L19.6657 55.8406C19.6925 55.9272 19.6827 56.0005 19.6361 56.0606C19.5896 56.1274 19.5264 56.1609 19.4464 56.1611L18.5764 56.1629C18.483 56.1631 18.4229 56.1233 18.3961 56.0433L17.7627 54.4547L14.3127 54.4622L13.6961 56.0535C13.6629 56.1336 13.603 56.1737 13.5164 56.1739L12.6464 56.1758ZM17.3302 53.3156L16.0331 50.0184L14.7602 53.3212L17.3302 53.3156ZM20.6289 56.1585C20.4955 56.1588 20.4287 56.0923 20.4284 55.9589L20.4141 49.3589C20.4138 49.2256 20.4804 49.1588 20.6137 49.1585L21.4437 49.1567C21.577 49.1564 21.6438 49.2229 21.6441 49.3563L21.6564 55.0263L25.1364 55.0187C25.2697 55.0184 25.3365 55.085 25.3368 55.2183L25.3384 55.9483C25.3387 56.0816 25.2722 56.1484 25.1388 56.1487L20.6289 56.1585ZM26.3808 56.146C26.2475 56.1463 26.1806 56.0798 26.1804 55.9465L26.1661 49.3465C26.1658 49.2132 26.2323 49.1463 26.3656 49.1461L27.1956 49.1443C27.329 49.144 27.3958 49.2105 27.3961 49.3438L27.4083 55.0138L30.8883 55.0063C31.0217 55.006 31.0885 55.0725 31.0888 55.2059L31.0903 55.9359C31.0906 56.0692 31.0241 56.136 30.8908 56.1363L26.3808 56.146ZM39.9468 56.1567C39.5268 56.1576 39.1865 56.0317 38.926 55.7789C38.7656 55.6126 38.595 55.3296 38.4141 54.93C38.2199 54.5104 38.0626 54.2308 37.9423 54.091C37.7218 53.8382 37.4315 53.7121 37.0715 53.7129L35.4915 53.7163L35.4963 55.9563C35.4966 56.0696 35.44 56.1264 35.3267 56.1267L34.4267 56.1286C34.32 56.1289 34.2666 56.0723 34.2663 55.959L34.2519 49.299C34.2517 49.1857 34.3049 49.1289 34.4116 49.1286L37.3016 49.1224C38.0816 49.1207 38.6987 49.326 39.1529 49.7384C39.6071 50.1574 39.835 50.7169 39.8365 51.4169C39.8385 52.3102 39.4865 52.9477 38.7807 53.3292C39.0278 53.5287 39.2652 53.8848 39.493 54.3977C39.6805 54.8106 39.8643 55.0202 40.0443 55.0265C40.1777 55.0262 40.2445 55.096 40.2448 55.236L40.2462 55.866C40.2466 56.0594 40.1468 56.1563 39.9468 56.1567ZM37.369 52.5823C38.189 52.5805 38.5982 52.1929 38.5965 51.4196C38.5948 50.6396 38.184 50.2505 37.364 50.2523L35.484 50.2563L35.489 52.5863L37.369 52.5823ZM41.3515 56.1136C41.2181 56.1139 41.1513 56.0474 41.151 55.9141L41.1367 49.3141C41.1365 49.1808 41.203 49.1139 41.3363 49.1137L42.1663 49.1119C42.2996 49.1116 42.3665 49.1781 42.3667 49.3114L42.381 55.9114C42.3813 56.0447 42.3148 56.1116 42.1815 56.1118L41.3515 56.1136ZM47.1048 56.2612C45.9848 56.2636 45.0908 55.9322 44.4227 55.267C43.7546 54.6018 43.4193 53.7125 43.4169 52.5992C43.4145 51.4858 43.7459 50.5984 44.4111 49.937C45.0697 49.2756 45.9623 48.9436 47.089 48.9412C47.989 48.9393 48.7226 49.0843 49.2899 49.3764C49.3767 49.4229 49.4202 49.4795 49.4203 49.5462L49.4222 50.4262C49.4223 50.4862 49.3991 50.5295 49.3525 50.5563C49.2992 50.5831 49.2459 50.5799 49.1925 50.5467C48.6051 50.2279 47.9048 50.0694 47.0914 50.0712C46.3381 50.0728 45.7419 50.3008 45.3029 50.7551C44.8639 51.2094 44.6452 51.8232 44.6469 52.5965C44.6486 53.3965 44.87 54.036 45.3111 54.5151C45.7521 54.9941 46.3493 55.2328 47.1026 55.2312C47.7093 55.2299 48.1791 55.1389 48.512 54.9581L48.5083 53.2381L46.6483 53.2422C46.515 53.2425 46.4482 53.1759 46.4479 53.0426L46.4466 52.4426C46.4463 52.3093 46.5128 52.2425 46.6461 52.2422L49.5361 52.2359C49.6695 52.2356 49.7363 52.3022 49.7366 52.4355L49.7433 55.5655C49.7435 55.6455 49.707 55.7022 49.6337 55.7357C48.8078 56.0842 47.9648 56.2593 47.1048 56.2612ZM51.0878 56.0926C50.9544 56.0929 50.8876 56.0263 50.8873 55.893L50.873 49.293C50.8728 49.1597 50.9393 49.0929 51.0726 49.0926L51.9026 49.0908C52.0359 49.0905 52.1028 49.157 52.103 49.2904L52.1088 51.9304L55.6288 51.9227L55.623 49.2827C55.6227 49.1494 55.6893 49.0826 55.8226 49.0823L56.6626 49.0805C56.7959 49.0802 56.8627 49.1467 56.863 49.2801L56.8773 55.88C56.8776 56.0134 56.8111 56.0802 56.6778 56.0805L55.8378 56.0823C55.7044 56.0826 55.6376 56.0161 55.6373 55.8827L55.6312 53.0627L52.1112 53.0703L52.1173 55.8903C52.1176 56.0237 52.0511 56.0905 51.9178 56.0908L51.0878 56.0926ZM60.2485 56.0727C60.1152 56.073 60.0484 56.0065 60.0481 55.8732L60.0358 50.2032L57.8258 50.208C57.6925 50.2083 57.6257 50.1417 57.6254 50.0084L57.6238 49.2784C57.6235 49.1451 57.69 49.0783 57.8234 49.078L63.4834 49.0657C63.6167 49.0654 63.6835 49.132 63.6838 49.2653L63.6854 49.9953C63.6857 50.1286 63.6191 50.1954 63.4858 50.1957L61.2758 50.2005L61.2881 55.8705C61.2884 56.0038 61.2219 56.0706 61.0885 56.0709L60.2485 56.0727ZM66.7417 56.2187C65.835 56.2207 65.028 56.0457 64.3205 55.6939C64.2137 55.6408 64.1602 55.5443 64.1599 55.4043L64.1582 54.6343C64.1577 54.3943 64.2476 54.3308 64.4278 54.4437C65.0954 54.8756 65.8659 55.0906 66.7392 55.0887C68.0059 55.086 68.6385 54.7646 68.6371 54.1246C68.6364 53.7779 68.4325 53.525 68.0255 53.3659C67.8186 53.2797 67.3451 53.174 66.6048 53.049C65.8112 52.9107 65.2375 52.7319 64.8836 52.5127C64.3362 52.1739 64.0618 51.6511 64.0602 50.9445C64.0588 50.2845 64.3111 49.7773 64.817 49.4228C65.3095 49.0751 66.0025 48.9003 66.8958 48.8983C67.7958 48.8964 68.5862 49.0647 69.2669 49.4032C69.3737 49.4563 69.4272 49.5529 69.4276 49.6929L69.4292 50.4329C69.4297 50.6729 69.3398 50.7364 69.1596 50.6234C68.5054 50.2249 67.7516 50.0265 66.8983 50.0283C66.4116 50.0294 66.0218 50.1136 65.7288 50.2809C65.4358 50.4482 65.2897 50.6785 65.2903 50.9718C65.2909 51.2585 65.4681 51.4748 65.8217 51.6207C66.0219 51.7002 66.4354 51.796 67.0623 51.908C67.9493 52.0594 68.5831 52.248 68.9636 52.4739C69.571 52.8392 69.8756 53.3986 69.8772 54.1519C69.8786 54.8186 69.6031 55.3292 69.0505 55.6837C68.5046 56.0382 67.735 56.2165 66.7417 56.2187ZM79.0287 56.0721C78.6087 56.073 78.2685 55.9471 78.0079 55.6943C77.8475 55.528 77.6769 55.245 77.4961 54.8454C77.3018 54.4258 77.1446 54.1462 77.0242 54.0064C76.8037 53.7536 76.5134 53.6275 76.1534 53.6283L74.5734 53.6317L74.5783 55.8717C74.5785 55.9851 74.522 56.0419 74.4086 56.0421L73.5087 56.044C73.402 56.0443 73.3485 55.9877 73.3483 55.8744L73.3339 49.2144C73.3336 49.1011 73.3868 49.0443 73.4935 49.0441L76.3835 49.0378C77.1635 49.0361 77.7806 49.2414 78.2348 49.6538C78.6891 50.0728 78.917 50.6323 78.9185 51.3323C78.9204 52.2257 78.5684 52.8631 77.8626 53.2446C78.1097 53.4441 78.3471 53.8002 78.5749 54.3131C78.7625 54.726 78.9463 54.9356 79.1263 54.9419C79.2596 54.9416 79.3264 55.0114 79.3267 55.1514L79.3281 55.7814C79.3285 55.9748 79.2287 56.0717 79.0287 56.0721ZM76.451 52.4977C77.271 52.4959 77.6801 52.1083 77.6785 51.335C77.6768 50.555 77.2659 50.1659 76.4459 50.1677L74.5659 50.1717L74.571 52.5017L76.451 52.4977ZM80.4334 56.0291C80.3001 56.0293 80.2333 55.9628 80.233 55.8295L80.2187 49.2295C80.2184 49.0962 80.2849 49.0294 80.4183 49.0291L85.3482 49.0184C85.4816 49.0181 85.5484 49.0846 85.5487 49.218L85.5503 49.948C85.5505 50.0813 85.484 50.1481 85.3507 50.1484L81.4507 50.1568L81.4545 51.8968L84.6845 51.8898C84.8178 51.8896 84.8846 51.9561 84.8849 52.0894L84.8862 52.7194C84.8865 52.8527 84.82 52.9196 84.6867 52.9198L81.4567 52.9268L81.461 54.8968L85.3609 54.8884C85.4943 54.8881 85.5611 54.9546 85.5614 55.088L85.563 55.818C85.5632 55.9513 85.4967 56.0181 85.3634 56.0184L80.4334 56.0291ZM88.9682 56.1706C88.0615 56.1725 87.2545 55.9976 86.547 55.6458C86.4403 55.5927 86.3867 55.4962 86.3864 55.3562L86.3847 54.5862C86.3842 54.3462 86.4741 54.2826 86.6543 54.3956C87.3219 54.8275 88.0924 55.0425 88.9657 55.0406C90.2324 55.0378 90.865 54.7165 90.8637 54.0765C90.8629 53.7298 90.659 53.4769 90.252 53.3178C90.0452 53.2316 89.5716 53.1259 88.8313 53.0009C88.0377 52.8626 87.464 52.6838 87.1102 52.4646C86.5628 52.1258 86.2883 51.603 86.2868 50.8964C86.2853 50.2364 86.5376 49.7292 87.0435 49.3747C87.536 49.027 88.229 48.8522 89.1223 48.8502C90.0223 48.8483 90.8127 49.0166 91.4934 49.3551C91.6002 49.4082 91.6538 49.5048 91.6541 49.6448L91.6557 50.3848C91.6562 50.6248 91.5663 50.6883 91.3861 50.5753C90.7319 50.1768 89.9781 49.9784 89.1248 49.9802C88.6381 49.9813 88.2483 50.0655 87.9553 50.2328C87.6624 50.4001 87.5162 50.6304 87.5168 50.9237C87.5174 51.2104 87.6946 51.4267 88.0482 51.5726C88.2484 51.6521 88.6619 51.7479 89.2889 51.8599C90.1758 52.0113 90.8096 52.1999 91.1901 52.4258C91.7975 52.7911 92.1021 53.3505 92.1037 54.1038C92.1052 54.7705 91.8296 55.2811 91.277 55.6356C90.7311 55.9901 89.9615 56.1684 88.9682 56.1706ZM93.0408 56.0018C92.9075 56.0021 92.8406 55.9355 92.8404 55.8022L92.8261 49.2022C92.8258 49.0689 92.8923 49.0021 93.0256 49.0018L97.9556 48.9911C98.089 48.9908 98.1558 49.0573 98.1561 49.1907L98.1576 49.9207C98.1579 50.054 98.0914 50.1208 97.9581 50.1211L94.0581 50.1296L94.0619 51.8695L97.2918 51.8626C97.4252 51.8623 97.492 51.9288 97.4923 52.0621L97.4936 52.6921C97.4939 52.8255 97.4274 52.8923 97.2941 52.8926L94.0641 52.8995L94.0683 54.8695L97.9683 54.8611C98.1017 54.8608 98.1685 54.9273 98.1688 55.0607L98.1703 55.7907C98.1706 55.924 98.1041 55.9908 97.9708 55.9911L93.0408 56.0018ZM104.888 56.0161C104.468 56.017 104.128 55.8911 103.867 55.6383C103.707 55.472 103.536 55.1891 103.355 54.7894C103.161 54.3699 103.004 54.0902 102.884 53.9505C102.663 53.6976 102.373 53.5716 102.013 53.5723L100.433 53.5758L100.438 55.8158C100.438 55.9291 100.381 55.9859 100.268 55.9861L99.368 55.9881C99.2613 55.9883 99.2078 55.9318 99.2076 55.8184L99.1932 49.1584C99.1929 49.0451 99.2461 48.9883 99.3528 48.9881L102.243 48.9818C103.023 48.9801 103.64 49.1855 104.094 49.5978C104.548 50.0168 104.776 50.5764 104.778 51.2764C104.78 52.1697 104.428 52.8071 103.722 53.1886C103.969 53.3881 104.206 53.7443 104.434 54.2571C104.622 54.67 104.806 54.8796 104.986 54.8859C105.119 54.8856 105.186 54.9555 105.186 55.0955L105.187 55.7255C105.188 55.9188 105.088 56.0157 104.888 56.0161ZM102.31 52.4417C103.13 52.4399 103.539 52.0524 103.538 51.279C103.536 50.499 103.125 50.1099 102.305 50.1117L100.425 50.1158L100.43 52.4458L102.31 52.4417ZM108.264 55.9688C108.177 55.969 108.117 55.9291 108.084 55.8492L105.31 49.2952C105.276 49.2153 105.283 49.1419 105.329 49.0752C105.376 49.0084 105.442 48.9749 105.529 48.9747L106.459 48.9727C106.552 48.9725 106.612 49.0124 106.639 49.0923L108.881 54.6675L111.099 49.0827C111.132 49.0026 111.192 48.9625 111.279 48.9623L112.209 48.9603C112.295 48.9601 112.362 48.9933 112.409 49.0598C112.456 49.1264 112.463 49.1997 112.429 49.2798L109.684 55.8457C109.657 55.9258 109.597 55.9659 109.504 55.9661L108.264 55.9688ZM113.324 55.9579C113.191 55.9582 113.124 55.8916 113.124 55.7583L113.109 49.1583C113.109 49.025 113.175 48.9582 113.309 48.9579L118.239 48.9472C118.372 48.9469 118.439 49.0134 118.439 49.1468L118.441 49.8768C118.441 50.0101 118.375 50.0769 118.241 50.0772L114.341 50.0857L114.345 51.8256L117.575 51.8187C117.708 51.8184 117.775 51.8849 117.775 52.0182L117.777 52.6482C117.777 52.7816 117.711 52.8484 117.577 52.8487L114.347 52.8556L114.352 54.8256L118.251 54.8172C118.385 54.8169 118.452 54.8834 118.452 55.0168L118.454 55.7468C118.454 55.8801 118.387 55.9469 118.254 55.9472L113.324 55.9579ZM119.691 55.9441C119.558 55.9444 119.491 55.8779 119.491 55.7445L119.476 49.1445C119.476 49.0112 119.543 48.9444 119.676 48.9441L122.136 48.9388C123.256 48.943 124.15 49.2611 124.818 49.893C125.493 50.5249 125.831 51.3741 125.834 52.4408C125.836 53.5075 125.501 54.3548 124.829 54.983C124.164 55.6111 123.271 55.9297 122.151 55.9388L119.691 55.9441ZM122.169 54.8087C122.909 54.8071 123.498 54.5992 123.937 54.1849C124.376 53.7639 124.595 53.1835 124.594 52.4435C124.592 51.7035 124.371 51.1206 123.93 50.6949C123.489 50.2759 122.898 50.0671 122.158 50.0687L120.708 50.0719L120.719 54.8119L122.169 54.8087Z" fill="#F9FEDC"/>
<defs>
<linearGradient id="paint0_linear_311_8657" x1="2.98161" y1="5.47212" x2="27.1917" y2="29.6822" gradientUnits="userSpaceOnUse">
<stop stop-color="#3B3B3B"/>
<stop offset="1"/>
</linearGradient>
<linearGradient id="paint1_linear_311_8657" x1="18.4446" y1="6.16113" x2="18.4446" y2="35.695" gradientUnits="userSpaceOnUse">
<stop stop-color="#D3FC51"/>
<stop offset="1" stop-color="#55780F"/>
</linearGradient>
</defs>
</svg>
