<svg width="90" height="25" viewBox="0 0 90 25" fill="none" xmlns="http://www.w3.org/2000/svg">
<path d="M14.4318 23.591L20.4683 20.1062C21.9399 19.2562 22.8467 17.6858 22.8467 15.9858V9.01528C22.8467 7.31598 21.9399 5.74488 20.4683 4.89484L14.4318 1.40999C12.9601 0.559951 11.1466 0.559951 9.6742 1.40999L3.63768 4.89484C2.16604 5.74488 1.25928 7.3152 1.25928 9.01528V15.9858C1.25928 17.6851 2.16604 19.2562 3.63768 20.1062L9.6742 23.591C11.1458 24.4411 12.9594 24.4411 14.4318 23.591Z" fill="url(#paint0_linear_487_1913)"/>
<path fill-rule="evenodd" clip-rule="evenodd" d="M14.5688 1.17397C14.5687 1.17396 14.5688 1.17399 14.5688 1.17397L20.6052 4.65879C22.161 5.55742 23.1196 7.21832 23.1196 9.01475V15.9852C23.1196 17.7825 22.161 19.4425 20.6053 20.3412L14.5687 23.826C13.0122 24.7246 11.095 24.7247 9.53919 23.826C9.53917 23.826 9.53921 23.8261 9.53919 23.826L3.50267 20.3412C1.94691 19.4426 0.988281 17.7817 0.988281 15.9852V9.01475C0.988281 7.21752 1.94687 5.55744 3.50261 4.65883L9.53919 1.17394C11.0957 0.275354 13.0129 0.27534 14.5688 1.17397ZM14.2967 1.64495C12.9093 0.843542 11.1994 0.843506 9.81112 1.64498L3.77465 5.1298C3.77464 5.12981 3.77467 5.12979 3.77465 5.1298C2.38715 5.93127 1.53218 7.41185 1.53218 9.01475V15.9852C1.53218 17.5874 2.38713 19.0687 3.77465 19.8702L9.81112 23.355C11.1986 24.1564 12.9085 24.1565 14.2968 23.355L20.3332 19.8702C21.7208 19.0687 22.5757 17.5882 22.5757 15.9852V9.01475C22.5757 7.41261 21.7208 5.93129 20.3333 5.12984C20.3333 5.12983 20.3333 5.12985 20.3333 5.12984L14.2967 1.64495Z" fill="black"/>
<path d="M13.8522 20.8781L18.4124 18.2448C19.5243 17.603 20.2096 16.4166 20.2096 15.1322V9.86644C20.2096 8.58205 19.5243 7.39557 18.4124 6.75377L13.8522 4.12051C12.7403 3.47871 11.3705 3.47871 10.2578 4.12051L5.69759 6.75377C4.58571 7.39557 3.90039 8.58205 3.90039 9.86644V15.1322C3.90039 16.4166 4.58571 17.603 5.69759 18.2448L10.2578 20.8781C11.3697 21.5199 12.7396 21.5199 13.8522 20.8781Z" fill="url(#paint1_linear_487_1913)"/>
<path fill-rule="evenodd" clip-rule="evenodd" d="M10.1307 3.90088C11.3215 3.21405 12.7875 3.214 13.9776 3.90091L18.5378 6.53417C18.5378 6.53416 18.5378 6.53418 18.5378 6.53417C19.7278 7.22108 20.4613 8.49094 20.4613 9.86554V15.1313C20.4613 16.5059 19.7278 17.7758 18.5378 18.4627L13.9776 21.0959L13.9775 21.096C12.7868 21.7828 11.3207 21.7828 10.1307 21.0959L5.57046 18.4627C4.38044 17.7758 3.64697 16.5059 3.64697 15.1313V9.86554C3.64697 8.49094 4.38042 7.2211 5.57042 6.53419C5.57041 6.5342 5.57044 6.53419 5.57042 6.53419L10.1307 3.90088ZM10.3832 4.3383C10.3832 4.33832 10.3831 4.33834 10.3831 4.33836L5.82298 6.97156C4.78923 7.56826 4.15202 8.6714 4.15202 9.86554V15.1313C4.15202 16.3254 4.78919 17.4285 5.82294 18.0252L10.3832 20.6585C11.4169 21.2552 12.6905 21.2552 13.7252 20.6585L18.2853 18.0253C19.319 17.4286 19.9562 16.3254 19.9562 15.1313V9.86554C19.9562 8.6714 19.3191 7.56828 18.2853 6.97158L13.7251 4.33833C12.6914 3.74165 11.4178 3.74159 10.3832 4.3383Z" fill="black"/>
<path d="M16.9946 13.3798C16.6418 12.6673 16.5416 12.0589 16.3761 11.3604C17.5222 9.78306 17.1026 7.72711 15.3536 6.731C15.2091 6.63776 15.0241 6.81491 15.1119 6.96332C15.6403 7.92447 15.4072 8.67583 14.9853 9.09308C13.5377 8.04413 10.5696 8.04491 9.12203 9.09308C8.69934 8.67506 8.46624 7.92447 8.99538 6.96332C9.08318 6.81569 8.89903 6.63776 8.75373 6.731C7.0047 7.72711 6.58512 9.78384 7.73119 11.3604C7.56569 12.0581 7.46546 12.6673 7.1127 13.3798C6.73819 14.1358 6.48877 14.7691 6.48877 15.4016C6.48877 16.243 6.76538 16.9221 7.31084 17.4202C8.55948 18.4785 10.3489 18.5406 12.0529 18.5733C13.7545 18.5414 15.5494 18.4777 16.7949 17.4202C17.3404 16.9229 17.617 16.2438 17.617 15.4016C17.617 14.7683 17.3676 14.135 16.993 13.3798H16.9946Z" fill="#EAFE96"/>
<path d="M16.9946 13.1767C16.6418 12.4642 16.5416 11.8558 16.3761 11.1572C17.5222 9.57993 17.1026 7.52399 15.3536 6.52787C15.2091 6.43463 15.0241 6.61179 15.1119 6.7602C15.6403 7.72135 15.4072 8.47271 14.9853 8.88996C13.5377 7.84101 10.5696 7.84178 9.12203 8.88996C8.69934 8.47193 8.46624 7.72135 8.99538 6.7602C9.08318 6.61257 8.89903 6.43463 8.75373 6.52787C7.0047 7.52399 6.58512 9.58071 7.73119 11.1572C7.56569 11.855 7.46546 12.4642 7.1127 13.1767C6.73819 13.9327 6.48877 14.566 6.48877 15.1984C6.48877 16.0399 6.76538 16.719 7.31084 17.2171C8.55948 18.2754 10.3489 18.3375 12.0529 18.3702C13.7545 18.3383 15.5494 18.2746 16.7949 17.2171C17.3404 16.7198 17.617 16.0407 17.617 15.1984C17.617 14.5652 17.3676 13.9319 16.993 13.1767H16.9946ZM9.70789 14.1075C9.21837 14.0423 8.82443 13.6475 8.75994 13.158C8.71721 12.834 8.81511 12.5333 9.00004 12.3072C9.035 12.2645 9.10338 12.2536 9.15 12.2831L10.8237 13.3259C10.8726 13.3562 10.892 13.4191 10.8679 13.4719C10.6729 13.8962 10.2192 14.1767 9.70711 14.1083L9.70789 14.1075ZM14.1104 15.848C14.0878 15.8511 14.0614 15.8527 14.0335 15.8527C13.9713 15.8527 13.8975 15.8426 13.8221 15.82C13.6426 16.0547 13.1282 16.5644 12.0537 16.5644C10.9791 16.5644 10.4647 16.0539 10.2852 15.82C10.2098 15.8426 10.136 15.8527 10.0739 15.8527C10.0451 15.8527 10.0195 15.8511 9.99693 15.848C9.91379 15.8371 9.85474 15.7602 9.86562 15.6771C9.87649 15.5939 9.95186 15.5349 10.0358 15.5458C10.0537 15.5481 10.1531 15.5559 10.2502 15.5108C10.2572 15.5053 10.2619 15.4984 10.2697 15.4945C10.2751 15.4914 10.2813 15.4914 10.2875 15.489C10.3365 15.4579 10.3831 15.4113 10.4126 15.3383C10.4445 15.2606 10.5338 15.2233 10.6115 15.2544C10.6892 15.2862 10.7273 15.3748 10.6955 15.4533C10.6605 15.5403 10.6115 15.6079 10.5571 15.6623C10.7172 15.8573 11.1531 16.2536 12.0544 16.2536C12.9557 16.2536 13.3916 15.8581 13.5517 15.6623C13.4965 15.6079 13.4484 15.5395 13.4134 15.4533C13.3815 15.3756 13.4188 15.2862 13.4973 15.2544C13.575 15.2225 13.6644 15.2598 13.6962 15.3383C13.7265 15.4129 13.7732 15.4587 13.8237 15.4906C13.8291 15.4929 13.8353 15.4929 13.84 15.496C13.847 15.4999 13.8516 15.5061 13.8578 15.5108C13.9558 15.5566 14.056 15.5481 14.0731 15.5465C14.1562 15.5364 14.2324 15.5955 14.2425 15.6786C14.2526 15.7618 14.1951 15.8379 14.1119 15.8488L14.1104 15.848ZM15.3474 13.158C15.2829 13.6475 14.8889 14.0423 14.3994 14.1075C13.8882 14.1759 13.4344 13.8954 13.2386 13.4712C13.2145 13.4183 13.2339 13.3562 13.2829 13.3251L14.9565 12.2823C15.0039 12.2528 15.0715 12.2637 15.1065 12.3064C15.2914 12.5333 15.3885 12.834 15.3466 13.1572L15.3474 13.158Z" fill="black"/>
<path d="M9.70983 14.1076C9.22032 14.0424 8.82638 13.6476 8.76189 13.1581C8.71915 12.8341 8.81706 12.5334 9.00198 12.3073C9.03695 12.2646 9.10532 12.2537 9.15194 12.2832L10.8256 13.326C10.8746 13.3563 10.894 13.4192 10.8699 13.472C10.6749 13.8963 10.2211 14.1768 9.70905 14.1084L9.70983 14.1076Z" fill="#EAFE96"/>
<path d="M14.1113 15.8472C14.0888 15.8503 14.0623 15.8519 14.0344 15.8519C13.9722 15.8519 13.8984 15.8418 13.823 15.8192C13.6435 16.0539 13.1292 16.5636 12.0546 16.5636C10.98 16.5636 10.4656 16.0531 10.2861 15.8192C10.2107 15.8418 10.1369 15.8519 10.0748 15.8519C10.046 15.8519 10.0204 15.8503 9.99784 15.8472C9.9147 15.8363 9.85565 15.7594 9.86653 15.6763C9.8774 15.5931 9.95277 15.5341 10.0367 15.5449C10.0546 15.5473 10.154 15.555 10.2511 15.51C10.2581 15.5045 10.2628 15.4975 10.2706 15.4937C10.276 15.4905 10.2822 15.4905 10.2884 15.4882C10.3374 15.4571 10.384 15.4105 10.4135 15.3375C10.4454 15.2598 10.5347 15.2225 10.6124 15.2536C10.6901 15.2854 10.7282 15.374 10.6964 15.4525C10.6614 15.5395 10.6124 15.6071 10.5581 15.6615C10.7181 15.8565 11.154 16.2528 12.0553 16.2528C12.9567 16.2528 13.3926 15.8573 13.5526 15.6615C13.4975 15.6071 13.4493 15.5387 13.4143 15.4525C13.3825 15.3748 13.4198 15.2854 13.4982 15.2536C13.5759 15.2217 13.6653 15.259 13.6971 15.3375C13.7274 15.4121 13.7741 15.4579 13.8246 15.4898C13.83 15.4921 13.8362 15.4921 13.8409 15.4952C13.8479 15.4991 13.8525 15.5053 13.8588 15.51C13.9567 15.5558 14.0569 15.5473 14.074 15.5457C14.1571 15.5356 14.2333 15.5947 14.2434 15.6778C14.2535 15.7609 14.196 15.8371 14.1128 15.848L14.1113 15.8472Z" fill="#EAFE96"/>
<path d="M15.3462 13.1579C15.2817 13.6474 14.8877 14.0422 14.3982 14.1074C13.8869 14.1758 13.4332 13.8953 13.2374 13.4711C13.2133 13.4182 13.2327 13.3561 13.2817 13.325L14.9553 12.2823C15.0027 12.2527 15.0703 12.2636 15.1053 12.3063C15.2902 12.5332 15.3873 12.8339 15.3454 13.1572L15.3462 13.1579Z" fill="#EAFE96"/>
<path d="M34.5196 19.5C34.253 19.5 34.1196 19.3667 34.1196 19.1V5.9C34.1196 5.63333 34.253 5.5 34.5196 5.5H39.6596C39.8463 5.5 39.9663 5.58 40.0196 5.74L42.8996 13.7L45.7796 5.74C45.8463 5.58 45.9663 5.5 46.1396 5.5H51.2796C51.5463 5.5 51.6796 5.63333 51.6796 5.9V19.1C51.6796 19.3667 51.5463 19.5 51.2796 19.5H48.2796C48.013 19.5 47.8796 19.3667 47.8796 19.1V10.54L44.3196 19.28C44.2663 19.4267 44.153 19.5 43.9796 19.5H41.8196C41.6463 19.5 41.533 19.4267 41.4796 19.28L37.9196 10.54V19.1C37.9196 19.3667 37.7863 19.5 37.5196 19.5H34.5196ZM53.2449 19.5C53.0449 19.5 52.9116 19.4267 52.8449 19.28C52.7649 19.12 52.7916 18.9667 52.9249 18.82L57.9649 12.5L52.9249 6.18C52.7916 6.03333 52.7649 5.88 52.8449 5.72C52.9116 5.57333 53.0449 5.5 53.2449 5.5H57.2049C57.3116 5.5 57.3983 5.54 57.4649 5.62L60.5649 9.66L63.6649 5.62C63.7183 5.54 63.8049 5.5 63.9249 5.5H67.8849C68.0716 5.5 68.2049 5.57333 68.2849 5.72C68.3516 5.88 68.3249 6.03333 68.2049 6.18L63.1649 12.5L68.2049 18.82C68.3249 18.9667 68.3516 19.12 68.2849 19.28C68.2049 19.4267 68.0716 19.5 67.8849 19.5H63.9249C63.8049 19.5 63.7183 19.46 63.6649 19.38L60.5649 15.34L57.4649 19.38C57.3983 19.46 57.3116 19.5 57.2049 19.5H53.2449ZM69.9884 19.5C69.7217 19.5 69.5884 19.3667 69.5884 19.1V5.9C69.5884 5.63333 69.7217 5.5 69.9884 5.5H75.1284C75.315 5.5 75.435 5.58 75.4884 5.74L78.3684 13.7L81.2484 5.74C81.315 5.58 81.435 5.5 81.6084 5.5H86.7484C87.015 5.5 87.1484 5.63333 87.1484 5.9V19.1C87.1484 19.3667 87.015 19.5 86.7484 19.5H83.7484C83.4817 19.5 83.3484 19.3667 83.3484 19.1V10.54L79.7884 19.28C79.735 19.4267 79.6217 19.5 79.4484 19.5H77.2884C77.115 19.5 77.0017 19.4267 76.9484 19.28L73.3884 10.54V19.1C73.3884 19.3667 73.255 19.5 72.9884 19.5H69.9884Z" fill="#F9FEDC"/>
<defs>
<linearGradient id="paint0_linear_487_1913" x1="2.77754" y1="3.22429" x2="17.3036" y2="17.7503" gradientUnits="userSpaceOnUse">
<stop stop-color="#3B3B3B"/>
<stop offset="1"/>
</linearGradient>
<linearGradient id="paint1_linear_487_1913" x1="12.055" y1="3.63916" x2="12.055" y2="21.3595" gradientUnits="userSpaceOnUse">
<stop stop-color="#D3FC51"/>
<stop offset="1" stop-color="#55780F"/>
</linearGradient>
</defs>
</svg>
