<svg width="150" height="46" viewBox="0 0 150 46" fill="none" xmlns="http://www.w3.org/2000/svg">
<path d="M138.055 0.930808H11.9518C11.4921 0.930808 11.038 0.930808 10.5796 0.933024C10.1958 0.93524 9.81509 0.941676 9.42764 0.947094C8.58593 0.955848 7.74619 1.02129 6.91573 1.14287C6.08644 1.26708 5.28313 1.50127 4.53296 1.8375C3.78372 2.17657 3.09911 2.61717 2.50397 3.1433C1.90571 3.66795 1.40702 4.27437 1.02706 4.93925C0.646059 5.60281 0.38187 6.31387 0.243619 7.04788C0.104055 7.78096 0.028954 8.5225 0.0189907 9.26583C0.0073581 9.6055 0.00612966 9.94631 0 10.286V35.8936C0.00612966 36.2376 0.0073581 36.5708 0.0189907 36.9149C0.0289571 37.6582 0.104058 38.3997 0.243619 39.1328C0.381488 39.8672 0.645693 40.5787 1.02706 41.2425C1.40685 41.9052 1.90561 42.5092 2.50397 43.0309C3.09685 43.5594 3.7819 44.0003 4.53296 44.3367C5.28312 44.6739 6.08635 44.9095 6.91573 45.0356C7.74633 45.1562 8.58598 45.2217 9.42764 45.2315C9.81509 45.239 10.1958 45.2433 10.5796 45.2433C11.038 45.2455 11.4922 45.2455 11.9518 45.2455H138.055C138.505 45.2455 138.963 45.2455 139.414 45.2433C139.796 45.2433 140.187 45.239 140.569 45.2315C141.409 45.2222 142.247 45.1567 143.076 45.0356C143.908 44.9086 144.715 44.673 145.468 44.3367C146.219 44.0001 146.903 43.5592 147.495 43.0309C148.092 42.5071 148.592 41.9036 148.977 41.2425C149.355 40.5782 149.617 39.8668 149.753 39.1328C149.892 38.3996 149.97 37.6583 149.985 36.9149C149.99 36.5708 149.99 36.2376 149.99 35.8936C150 35.4911 150 35.0908 150 34.6818V11.4956C150 11.0899 150 10.6874 149.99 10.286C149.99 9.94631 149.99 9.6055 149.985 9.26579C149.97 8.52239 149.892 7.78102 149.753 7.04784C149.616 6.31425 149.355 5.60325 148.977 4.93921C148.203 3.60653 146.976 2.52173 145.468 1.8374C144.715 1.50199 143.908 1.26787 143.076 1.14277C142.248 1.02066 141.409 0.95519 140.569 0.946939C140.187 0.941532 139.796 0.93504 139.414 0.93288C138.963 0.930664 138.505 0.930808 138.055 0.930808Z" fill="#A6A6A6"/>
<path d="M10.5851 44.2754C10.2032 44.2754 9.83048 44.271 9.45156 44.2635C8.66659 44.2545 7.88345 44.1941 7.10857 44.0828C6.38604 43.9728 5.6861 43.7683 5.03184 43.4758C4.38357 43.1858 3.79231 42.8055 3.28068 42.3496C2.76166 41.899 2.32954 41.3764 2.00147 40.8024C1.66977 40.2248 1.44022 39.6056 1.32081 38.9665C1.19186 38.2797 1.12208 37.5853 1.1121 36.8892C1.10415 36.6556 1.09375 35.8776 1.09375 35.8776V10.2852C1.09375 10.2852 1.10483 9.51925 1.11216 9.29421C1.12172 8.59923 1.19109 7.90589 1.31966 7.22021C1.43929 6.57933 1.66902 5.95836 2.00089 5.37882C2.32776 4.80529 2.75748 4.28228 3.27338 3.83007C3.7887 3.37357 4.38186 2.99133 5.03122 2.69731C5.68398 2.40581 6.3826 2.20267 7.10367 2.0947C7.8811 1.98232 8.66695 1.92157 9.45464 1.91294L10.5857 1.89941H139.407L140.552 1.91348C141.332 1.92168 142.111 1.98189 142.881 2.09361C143.609 2.20294 144.315 2.4075 144.976 2.70056C146.277 3.2931 147.335 4.23055 148.003 5.38152C148.329 5.95707 148.556 6.57296 148.674 7.20831C148.804 7.89962 148.877 8.5984 148.892 9.29909C148.895 9.61283 148.895 9.94985 148.895 10.2852C148.905 10.7007 148.905 11.0961 148.905 11.4948V34.681C148.905 35.0835 148.905 35.4762 148.895 35.8722C148.895 36.2325 148.895 36.5625 148.89 36.9022C148.876 37.5904 148.804 38.2767 148.676 38.9556C148.559 39.5993 148.331 40.2234 147.999 40.8057C147.669 41.3734 147.239 41.8915 146.726 42.3409C146.214 42.7993 145.622 43.1818 144.972 43.4737C144.314 43.7684 143.609 43.9737 142.881 44.0828C142.106 44.1947 141.323 44.2551 140.538 44.2635C140.171 44.271 139.786 44.2754 139.413 44.2754L138.054 44.2776L10.5851 44.2754Z" fill="black"/>
<path d="M27.4364 23.4175C27.4484 22.4928 27.694 21.5861 28.1504 20.7818C28.6069 19.9776 29.2594 19.3018 30.0472 18.8175C29.5467 18.1028 28.8865 17.5146 28.1189 17.0996C27.3514 16.6846 26.4976 16.4544 25.6255 16.4271C23.7651 16.2318 21.9616 17.5403 21.0136 17.5403C20.0472 17.5403 18.5876 16.4465 17.0158 16.4788C15.9992 16.5117 15.0084 16.8073 14.1399 17.3369C13.2715 17.8666 12.5551 18.6121 12.0604 19.5009C9.91781 23.2105 11.516 28.6624 13.5685 31.661C14.5953 33.1293 15.7955 34.7694 17.3658 34.7113C18.9025 34.6475 19.4764 33.7314 21.3313 33.7314C23.169 33.7314 23.7075 34.7113 25.3097 34.6743C26.9586 34.6475 27.9975 33.1995 28.9884 31.7172C29.7262 30.671 30.2939 29.5147 30.6706 28.2912C29.7126 27.886 28.8951 27.2078 28.32 26.3411C27.7448 25.4744 27.4376 24.4576 27.4364 23.4175Z" fill="white"/>
<path d="M24.4093 14.4541C25.3083 13.3748 25.7513 11.9875 25.644 10.5869C24.2704 10.7312 23.0016 11.3877 22.0904 12.4255C21.6449 12.9326 21.3037 13.5224 21.0863 14.1614C20.8689 14.8004 20.7795 15.476 20.8233 16.1495C21.5104 16.1566 22.1901 16.0077 22.8112 15.714C23.4323 15.4203 23.9787 14.9895 24.4093 14.4541Z" fill="white"/>
<path d="M46.8612 31.0009H41.6172L40.3579 34.7194H38.1367L43.1037 20.9619H45.4114L50.3784 34.7194H48.1194L46.8612 31.0009ZM42.1603 29.285H46.317L44.2679 23.2502H44.2106L42.1603 29.285Z" fill="white"/>
<path d="M61.1045 29.7016C61.1045 32.8186 59.4362 34.8212 56.9187 34.8212C56.2809 34.8545 55.6467 34.7076 55.0885 34.3973C54.5304 34.0869 54.0709 33.6256 53.7628 33.0663H53.7151V38.0344H51.6562V24.6859H53.6491V26.3542H53.687C54.0094 25.7975 54.4766 25.3387 55.039 25.0264C55.6013 24.7142 56.2379 24.5602 56.8808 24.581C59.4265 24.581 61.1045 26.5933 61.1045 29.7016ZM58.9883 29.7016C58.9883 27.6709 57.9389 26.3358 56.3377 26.3358C54.7646 26.3358 53.7065 27.699 53.7065 29.7016C53.7065 31.7226 54.7646 33.0761 56.3377 33.0761C57.9389 33.0761 58.9883 31.7507 58.9883 29.7016Z" fill="white"/>
<path d="M72.1436 29.7016C72.1436 32.8186 70.4753 34.8212 67.9577 34.8212C67.32 34.8545 66.6857 34.7076 66.1276 34.3973C65.5694 34.0869 65.11 33.6256 64.8018 33.0663H64.7542V38.0344H62.6953V24.6859H64.6882V26.3542H64.726C65.0484 25.7975 65.5156 25.3387 66.078 25.0264C66.6404 24.7142 67.2769 24.5602 67.9198 24.581C70.4656 24.581 72.1436 26.5933 72.1436 29.7016ZM70.0274 29.7016C70.0274 27.6709 68.9779 26.3358 67.3767 26.3358C65.8036 26.3358 64.7455 27.699 64.7455 29.7016C64.7455 31.7226 65.8036 33.0761 67.3767 33.0761C68.978 33.0761 70.0274 31.7507 70.0274 29.7016Z" fill="white"/>
<path d="M79.4435 30.8813C79.5961 32.2455 80.9214 33.1413 82.7325 33.1413C84.4679 33.1413 85.7164 32.2455 85.7164 31.0154C85.7164 29.9475 84.9634 29.3081 83.1804 28.8699L81.3974 28.4404C78.8712 27.8302 77.6984 26.6488 77.6984 24.7317C77.6984 22.358 79.767 20.7275 82.7044 20.7275C85.6114 20.7275 87.6043 22.358 87.6714 24.7317H85.593C85.4686 23.3587 84.3337 22.53 82.6751 22.53C81.0166 22.53 79.8817 23.3685 79.8817 24.5889C79.8817 25.5615 80.6065 26.1338 82.3798 26.5719L83.8955 26.9441C86.7182 27.6117 87.891 28.7455 87.891 30.7578C87.891 33.3317 85.8408 34.9437 82.5799 34.9437C79.5289 34.9437 77.469 33.3695 77.3359 30.8812L79.4435 30.8813Z" fill="white"/>
<path d="M92.3278 22.3057V24.6794H94.2352V26.3098H92.3278V31.8394C92.3278 32.6984 92.7097 33.0987 93.5482 33.0987C93.7746 33.0948 94.0007 33.0789 94.2254 33.0511V34.6718C93.8485 34.7422 93.4653 34.7741 93.0819 34.767C91.0511 34.767 90.2592 34.0042 90.2592 32.059V26.3098H88.8008V24.6794H90.2592V22.3057H92.3278Z" fill="white"/>
<path d="M95.3438 29.7025C95.3438 26.5466 97.2024 24.5635 100.101 24.5635C103.009 24.5635 104.859 26.5466 104.859 29.7025C104.859 32.8671 103.019 34.8415 100.101 34.8415C97.184 34.8415 95.3438 32.8671 95.3438 29.7025ZM102.761 29.7025C102.761 27.5376 101.769 26.2599 100.101 26.2599C98.4326 26.2599 97.4416 27.5474 97.4416 29.7025C97.4416 31.876 98.4326 33.144 100.101 33.144C101.769 33.144 102.761 31.876 102.761 29.7025Z" fill="white"/>
<path d="M106.555 24.6858H108.518V26.393H108.566C108.699 25.8598 109.011 25.3886 109.451 25.0586C109.89 24.7286 110.43 24.5599 110.979 24.5808C111.216 24.58 111.453 24.6058 111.684 24.6577V26.5835C111.384 26.4919 111.072 26.4499 110.759 26.459C110.46 26.4469 110.162 26.4996 109.885 26.6136C109.608 26.7276 109.359 26.9001 109.155 27.1194C108.952 27.3386 108.798 27.5994 108.704 27.8837C108.611 28.1681 108.58 28.4693 108.614 28.7667V34.7161H106.555L106.555 24.6858Z" fill="white"/>
<path d="M121.181 31.7711C120.904 33.5919 119.131 34.8415 116.862 34.8415C113.944 34.8415 112.133 32.8865 112.133 29.7501C112.133 26.6039 113.954 24.5635 116.775 24.5635C119.55 24.5635 121.295 26.4698 121.295 29.511V30.2164H114.211V30.3408C114.178 30.71 114.225 31.0818 114.347 31.4318C114.469 31.7817 114.664 32.1016 114.919 32.3703C115.174 32.639 115.484 32.8504 115.827 32.9903C116.17 33.1302 116.539 33.1955 116.909 33.1819C117.396 33.2275 117.884 33.1148 118.302 32.8606C118.719 32.6064 119.043 32.2243 119.226 31.7711L121.181 31.7711ZM114.221 28.7775H119.236C119.254 28.4456 119.204 28.1134 119.088 27.8019C118.972 27.4903 118.793 27.2061 118.562 26.9671C118.331 26.728 118.053 26.5393 117.745 26.4128C117.438 26.2863 117.108 26.2246 116.775 26.2318C116.44 26.2298 116.108 26.2942 115.797 26.4213C115.487 26.5484 115.205 26.7357 114.968 26.9724C114.73 27.2091 114.542 27.4905 114.414 27.8003C114.286 28.1101 114.22 28.4422 114.221 28.7775Z" fill="white"/>
<path d="M41.9034 10.6022C42.335 10.5713 42.7682 10.6365 43.1715 10.7932C43.5749 10.9498 43.9385 11.1941 44.2361 11.5083C44.5336 11.8225 44.7577 12.1989 44.8922 12.6102C45.0267 13.0215 45.0683 13.4576 45.0138 13.8869C45.0138 15.9988 43.8724 17.2127 41.9034 17.2127H39.5156V10.6022H41.9034ZM40.5423 16.2778H41.7887C42.0971 16.2963 42.4058 16.2457 42.6922 16.1298C42.9786 16.0139 43.2356 15.8356 43.4445 15.6079C43.6533 15.3801 43.8087 15.1087 43.8994 14.8133C43.9901 14.5179 44.0138 14.206 43.9687 13.9004C44.0105 13.5959 43.9844 13.2859 43.8923 12.9927C43.8002 12.6995 43.6444 12.4303 43.4361 12.2044C43.2277 11.9784 42.972 11.8014 42.6872 11.6859C42.4024 11.5704 42.0956 11.5194 41.7887 11.5364H40.5423V16.2778Z" fill="white"/>
<path d="M46.1752 14.7066C46.1438 14.3787 46.1813 14.048 46.2853 13.7355C46.3893 13.423 46.5574 13.1356 46.7789 12.8919C47.0004 12.6482 47.2704 12.4535 47.5716 12.3202C47.8728 12.187 48.1985 12.1182 48.5278 12.1182C48.8571 12.1182 49.1828 12.187 49.484 12.3202C49.7852 12.4535 50.0552 12.6482 50.2767 12.8919C50.4982 13.1356 50.6663 13.423 50.7703 13.7355C50.8742 14.048 50.9117 14.3787 50.8804 14.7066C50.9123 15.0347 50.8753 15.366 50.7716 15.679C50.6679 15.992 50.4999 16.2798 50.2783 16.524C50.0568 16.7682 49.7865 16.9633 49.4851 17.0969C49.1836 17.2304 48.8575 17.2994 48.5278 17.2994C48.1981 17.2994 47.872 17.2304 47.5705 17.0969C47.269 16.9633 46.9988 16.7682 46.7773 16.524C46.5557 16.2798 46.3877 15.992 46.284 15.679C46.1803 15.366 46.1432 15.0347 46.1752 14.7066ZM49.8677 14.7066C49.8677 13.6252 49.3819 12.9928 48.5294 12.9928C47.6736 12.9928 47.1922 13.6252 47.1922 14.7066C47.1922 15.7966 47.6737 16.4241 48.5294 16.4241C49.382 16.4241 49.8677 15.7923 49.8677 14.7066Z" fill="white"/>
<path d="M57.1335 17.2084H56.1122L55.0811 13.5342H55.0033L53.9765 17.2084H52.9649L51.5898 12.2197H52.5884L53.4821 16.0264H53.5557L54.5813 12.2197H55.5258L56.5515 16.0264H56.6293L57.5187 12.2197H58.5032L57.1335 17.2084Z" fill="white"/>
<path d="M59.6563 12.2194H60.604V13.0119H60.6776C60.8024 12.7272 61.0129 12.4886 61.2797 12.3293C61.5466 12.17 61.8565 12.0979 62.1663 12.1231C62.409 12.1048 62.6527 12.1414 62.8794 12.2302C63.1061 12.3189 63.3099 12.4575 63.4757 12.6357C63.6415 12.8139 63.7651 13.0271 63.8374 13.2596C63.9096 13.492 63.9286 13.7377 63.893 13.9785V17.208H62.9085V14.2258C62.9085 13.4241 62.5601 13.0254 61.832 13.0254C61.6672 13.0177 61.5026 13.0458 61.3497 13.1076C61.1967 13.1695 61.059 13.2637 60.9458 13.3837C60.8327 13.5038 60.7469 13.6469 60.6942 13.8033C60.6415 13.9596 60.6233 14.1255 60.6408 14.2896V17.208H59.6562L59.6563 12.2194Z" fill="white"/>
<path d="M65.4609 10.2744H66.4455V17.2105H65.4609V10.2744Z" fill="white"/>
<path d="M67.1791 14.5973C67.1477 14.2694 67.1853 13.9386 67.2892 13.6261C67.3932 13.3136 67.5614 13.0263 67.7829 12.7826C68.0045 12.5389 68.2745 12.3441 68.5757 12.2109C68.8769 12.0776 69.2026 12.0088 69.5319 12.0088C69.8613 12.0088 70.187 12.0776 70.4882 12.2109C70.7894 12.3441 71.0594 12.5389 71.281 12.7826C71.5025 13.0263 71.6706 13.3136 71.7746 13.6261C71.8786 13.9386 71.9161 14.2694 71.8848 14.5973C71.9167 14.9255 71.8796 15.2567 71.7759 15.5697C71.6722 15.8827 71.5041 16.1705 71.2825 16.4147C71.061 16.6589 70.7907 16.854 70.4893 16.9876C70.1878 17.1211 69.8617 17.1901 69.5319 17.1901C69.2022 17.1901 68.8761 17.1211 68.5746 16.9876C68.2731 16.854 68.0029 16.6589 67.7813 16.4147C67.5597 16.1705 67.3917 15.8827 67.288 15.5697C67.1842 15.2567 67.1472 14.9255 67.1791 14.5973ZM70.8716 14.5973C70.8716 13.5159 70.3858 12.8836 69.5333 12.8836C68.6775 12.8836 68.1961 13.5159 68.1961 14.5973C68.1961 15.6873 68.6775 16.3148 69.5333 16.3148C70.3858 16.3148 70.8716 15.683 70.8716 14.5973Z" fill="white"/>
<path d="M73.5625 15.7923C73.5625 14.8943 74.2311 14.3766 75.418 14.3031L76.7693 14.2252V13.7946C76.7693 13.2677 76.4209 12.9702 75.7479 12.9702C75.1983 12.9702 74.8175 13.1719 74.7082 13.5246H73.7551C73.8557 12.6678 74.6617 12.1182 75.7934 12.1182C77.0441 12.1182 77.7495 12.7408 77.7495 13.7946V17.2031H76.8017V16.502H76.7238C76.5657 16.7535 76.3437 16.9585 76.0804 17.0961C75.8172 17.2337 75.5221 17.299 75.2254 17.2853C75.016 17.3071 74.8043 17.2847 74.604 17.2197C74.4038 17.1547 74.2194 17.0484 74.0627 16.9077C73.906 16.7671 73.7806 16.5951 73.6944 16.403C73.6083 16.2109 73.5633 16.0029 73.5625 15.7923ZM76.7693 15.366V14.949L75.551 15.0269C74.864 15.0728 74.5524 15.3065 74.5524 15.7463C74.5524 16.1953 74.9419 16.4566 75.4775 16.4566C75.6344 16.4725 75.7929 16.4566 75.9436 16.41C76.0943 16.3634 76.234 16.2869 76.3546 16.1851C76.4751 16.0834 76.5739 15.9584 76.6452 15.8177C76.7164 15.677 76.7586 15.5234 76.7693 15.366Z" fill="white"/>
<path d="M79.0391 14.714C79.0391 13.1377 79.8494 12.1391 81.1098 12.1391C81.4216 12.1247 81.731 12.1994 82.0019 12.3544C82.2728 12.5094 82.494 12.7383 82.6396 13.0143H82.7132V10.2744H83.6977V17.2105H82.7543V16.4223H82.6764C82.5195 16.6965 82.2906 16.9225 82.0145 17.076C81.7384 17.2294 81.4255 17.3043 81.1098 17.2927C79.8408 17.2928 79.0391 16.2941 79.0391 14.714ZM80.0561 14.714C80.0561 15.7721 80.5548 16.4088 81.389 16.4088C82.2188 16.4088 82.7316 15.7629 82.7316 14.7183C82.7316 13.6786 82.2134 13.0235 81.389 13.0235C80.5602 13.0235 80.0561 13.6646 80.0561 14.714Z" fill="white"/>
<path d="M87.7689 14.7066C87.7376 14.3787 87.7751 14.048 87.879 13.7355C87.983 13.423 88.1511 13.1356 88.3726 12.8919C88.5942 12.6482 88.8641 12.4535 89.1653 12.3202C89.4665 12.187 89.7922 12.1182 90.1215 12.1182C90.4509 12.1182 90.7766 12.187 91.0777 12.3202C91.3789 12.4535 91.6489 12.6482 91.8704 12.8919C92.0919 13.1356 92.2601 13.423 92.364 13.7355C92.468 14.048 92.5055 14.3787 92.4741 14.7066C92.5061 15.0347 92.469 15.366 92.3653 15.679C92.2617 15.992 92.0936 16.2798 91.8721 16.524C91.6505 16.7682 91.3803 16.9633 91.0788 17.0969C90.7773 17.2304 90.4513 17.2994 90.1215 17.2994C89.7918 17.2994 89.4657 17.2304 89.1642 17.0969C88.8628 16.9633 88.5926 16.7682 88.371 16.524C88.1494 16.2798 87.9814 15.992 87.8777 15.679C87.774 15.366 87.737 15.0347 87.7689 14.7066ZM91.4615 14.7066C91.4615 13.6252 90.9757 12.9928 90.1232 12.9928C89.2674 12.9928 88.786 13.6252 88.786 14.7066C88.786 15.7966 89.2674 16.4241 90.1232 16.4241C90.9757 16.4241 91.4615 15.7923 91.4615 14.7066Z" fill="white"/>
<path d="M93.8008 12.2194H94.7485V13.0119H94.8221C94.9469 12.7272 95.1574 12.4886 95.4243 12.3293C95.6911 12.17 96.001 12.0979 96.3108 12.1231C96.5535 12.1048 96.7973 12.1414 97.0239 12.2302C97.2506 12.3189 97.4544 12.4575 97.6202 12.6357C97.7861 12.8139 97.9097 13.0271 97.9819 13.2596C98.0541 13.492 98.0731 13.7377 98.0375 13.9785V17.208H97.053V14.2258C97.053 13.4241 96.7046 13.0254 95.9765 13.0254C95.8117 13.0177 95.6472 13.0458 95.4942 13.1076C95.3413 13.1695 95.2035 13.2637 95.0904 13.3837C94.9772 13.5038 94.8914 13.6469 94.8387 13.8033C94.7861 13.9596 94.7679 14.1255 94.7853 14.2896V17.208H93.8008V12.2194Z" fill="white"/>
<path d="M103.602 10.9775V12.2423H104.683V13.0716H103.602V15.6368C103.602 16.1593 103.817 16.3881 104.307 16.3881C104.433 16.3877 104.558 16.3801 104.683 16.3654V17.1855C104.506 17.2171 104.327 17.2339 104.147 17.2358C103.052 17.2358 102.616 16.8506 102.616 15.8888V13.0715H101.824V12.2422H102.616V10.9775H103.602Z" fill="white"/>
<path d="M106.023 10.2744H106.999V13.0235H107.077C107.208 12.7362 107.424 12.4963 107.697 12.3364C107.969 12.1765 108.284 12.1043 108.598 12.1299C108.84 12.1167 109.081 12.1571 109.305 12.2479C109.529 12.3388 109.731 12.4781 109.895 12.6557C110.059 12.8333 110.182 13.045 110.255 13.2756C110.327 13.5062 110.349 13.75 110.316 13.9897V17.2105H109.331V14.2326C109.331 13.4357 108.96 13.0322 108.264 13.0322C108.095 13.0183 107.925 13.0416 107.765 13.1003C107.606 13.1591 107.462 13.252 107.342 13.3724C107.222 13.4929 107.13 13.6381 107.073 13.7978C107.015 13.9574 106.993 14.1278 107.008 14.2969V17.2105H106.023L106.023 10.2744Z" fill="white"/>
<path d="M116.058 15.8562C115.924 16.3121 115.634 16.7065 115.239 16.9704C114.844 17.2342 114.368 17.3507 113.896 17.2995C113.567 17.3081 113.241 17.2452 112.939 17.115C112.637 16.9848 112.367 16.7904 112.148 16.5455C111.929 16.3005 111.765 16.0107 111.669 15.6963C111.573 15.3818 111.547 15.0502 111.592 14.7246C111.548 14.3979 111.575 14.0656 111.671 13.7502C111.766 13.4348 111.929 13.1437 112.147 12.8966C112.365 12.6494 112.634 12.452 112.935 12.3178C113.236 12.1835 113.562 12.1154 113.892 12.1182C115.28 12.1182 116.117 13.0666 116.117 14.6331V14.9766H112.595V15.0318C112.579 15.2149 112.602 15.3992 112.662 15.5728C112.722 15.7465 112.818 15.9057 112.943 16.0402C113.068 16.1748 113.22 16.2817 113.388 16.3542C113.557 16.4266 113.739 16.463 113.923 16.461C114.159 16.4892 114.397 16.4468 114.609 16.3391C114.82 16.2315 114.994 16.0633 115.11 15.8562L116.058 15.8562ZM112.594 14.2485H115.114C115.127 14.0811 115.104 13.9129 115.047 13.7548C114.991 13.5967 114.902 13.4521 114.786 13.3304C114.671 13.2087 114.531 13.1125 114.376 13.0481C114.221 12.9836 114.054 12.9523 113.886 12.9562C113.716 12.954 113.547 12.986 113.389 13.0502C113.232 13.1144 113.088 13.2095 112.968 13.33C112.847 13.4504 112.752 13.5937 112.688 13.7515C112.624 13.9092 112.592 14.0782 112.594 14.2485Z" fill="white"/>
</svg>
