<svg width="14" height="14" viewBox="0 0 14 14" fill="none" xmlns="http://www.w3.org/2000/svg">
<path d="M2.74951 1.25H1.24951V2.75H2.74951V1.25ZM1.24951 0H2.74951C3.43701 0 3.99951 0.5625 3.99951 1.25V2.75C3.99951 3.46875 3.43701 4 2.74951 4H1.24951C0.530762 4 -0.000488281 3.46875 -0.000488281 2.75V1.25C-0.000488281 0.5625 0.530762 0 1.24951 0ZM2.74951 6.25H1.24951V7.75H2.74951V6.25ZM1.24951 5H2.74951C3.43701 5 3.99951 5.5625 3.99951 6.25V7.75C3.99951 8.46875 3.43701 9 2.74951 9H1.24951C0.530762 9 -0.000488281 8.46875 -0.000488281 7.75V6.25C-0.000488281 5.5625 0.530762 5 1.24951 5ZM1.24951 11.25V12.75H2.74951V11.25H1.24951ZM-0.000488281 11.25C-0.000488281 10.5625 0.530762 10 1.24951 10H2.74951C3.43701 10 3.99951 10.5625 3.99951 11.25V12.75C3.99951 13.4688 3.43701 14 2.74951 14H1.24951C0.530762 14 -0.000488281 13.4688 -0.000488281 12.75V11.25ZM7.74951 1.25H6.24951V2.75H7.74951V1.25ZM6.24951 0H7.74951C8.43701 0 8.99951 0.5625 8.99951 1.25V2.75C8.99951 3.46875 8.43701 4 7.74951 4H6.24951C5.53076 4 4.99951 3.46875 4.99951 2.75V1.25C4.99951 0.5625 5.53076 0 6.24951 0ZM6.24951 6.25V7.75H7.74951V6.25H6.24951ZM4.99951 6.25C4.99951 5.5625 5.53076 5 6.24951 5H7.74951C8.43701 5 8.99951 5.5625 8.99951 6.25V7.75C8.99951 8.46875 8.43701 9 7.74951 9H6.24951C5.53076 9 4.99951 8.46875 4.99951 7.75V6.25ZM7.74951 11.25H6.24951V12.75H7.74951V11.25ZM6.24951 10H7.74951C8.43701 10 8.99951 10.5625 8.99951 11.25V12.75C8.99951 13.4688 8.43701 14 7.74951 14H6.24951C5.53076 14 4.99951 13.4688 4.99951 12.75V11.25C4.99951 10.5625 5.53076 10 6.24951 10ZM11.2495 1.25V2.75H12.7495V1.25H11.2495ZM9.99951 1.25C9.99951 0.5625 10.5308 0 11.2495 0H12.7495C13.437 0 13.9995 0.5625 13.9995 1.25V2.75C13.9995 3.46875 13.437 4 12.7495 4H11.2495C10.5308 4 9.99951 3.46875 9.99951 2.75V1.25ZM12.7495 6.25H11.2495V7.75H12.7495V6.25ZM11.2495 5H12.7495C13.437 5 13.9995 5.5625 13.9995 6.25V7.75C13.9995 8.46875 13.437 9 12.7495 9H11.2495C10.5308 9 9.99951 8.46875 9.99951 7.75V6.25C9.99951 5.5625 10.5308 5 11.2495 5ZM11.2495 11.25V12.75H12.7495V11.25H11.2495ZM9.99951 11.25C9.99951 10.5625 10.5308 10 11.2495 10H12.7495C13.437 10 13.9995 10.5625 13.9995 11.25V12.75C13.9995 13.4688 13.437 14 12.7495 14H11.2495C10.5308 14 9.99951 13.4688 9.99951 12.75V11.25Z" fill="white"/>
<rect x="1" y="1" width="2" height="2" fill="white"/>
<rect x="1" y="6" width="2" height="2" fill="white"/>
<rect x="1" y="11" width="2" height="2" fill="white"/>
<rect x="6" y="1" width="2" height="2" fill="white"/>
<rect x="6" y="6" width="2" height="2" fill="white"/>
<rect x="6" y="11" width="2" height="2" fill="white"/>
<rect x="11" y="1" width="2" height="2" fill="white"/>
<rect x="11" y="6" width="2" height="2" fill="white"/>
<rect x="11" y="11" width="2" height="2" fill="white"/>
</svg>
