<svg width="101" height="27" viewBox="0 0 101 27" fill="none" xmlns="http://www.w3.org/2000/svg">
<path d="M87.7702 24.9434C87.1659 24.95 86.5604 24.9527 85.9562 24.966C85.7132 24.9714 85.7278 24.81 85.7278 24.6487C85.7278 23.7928 85.7145 22.9368 85.7331 22.0822C85.7397 21.7809 85.6428 21.6969 85.3507 21.6982C83.6575 21.7089 81.9644 21.7089 80.2713 21.6982C79.9977 21.6969 79.8968 21.7769 79.9021 22.0622C79.9181 22.8955 79.8981 23.7288 79.9127 24.5607C79.9181 24.8554 79.8463 24.99 79.521 24.9714C79.0629 24.9447 78.6021 24.9554 78.1426 24.9687C77.9036 24.9754 77.7973 24.9034 77.7987 24.6474C77.804 22.0809 77.788 19.513 77.8093 16.9465C77.8199 15.7413 78.7043 14.916 79.9074 14.9147C81.7918 14.9133 83.6748 14.9147 85.5591 14.9147C86.745 14.9147 87.3704 15.36 87.7715 16.4919V24.942L87.7702 24.9434ZM82.8103 16.9812C81.9578 16.9812 81.1052 16.9879 80.2527 16.9772C80.0017 16.9745 79.8862 17.0372 79.8941 17.3158C79.9101 17.9691 79.9074 18.6224 79.8955 19.2757C79.8915 19.5264 79.9871 19.6104 80.2314 19.6104C81.9591 19.6037 83.6867 19.6037 85.4157 19.6104C85.6747 19.6104 85.7371 19.5037 85.7331 19.2637C85.7211 18.6104 85.7185 17.9571 85.7331 17.3038C85.7384 17.0479 85.6468 16.9732 85.4024 16.9772C84.5393 16.9879 83.6748 16.9812 82.8103 16.9812Z" fill="#F9FEDC"/>
<path d="M1.1111 26.4316C0.954405 26.2117 0.996899 26.0263 1.17883 25.8317C1.90919 25.0531 2.61831 24.2544 3.36329 23.4892C3.51733 23.3305 3.79088 23.2065 4.00867 23.2052C7.66714 23.1905 11.3243 23.1958 14.9828 23.2078C15.1302 23.2078 15.3493 23.2825 15.4037 23.3892C15.4528 23.4852 15.3572 23.7091 15.2603 23.8158C14.4582 24.6957 13.6402 25.561 12.8275 26.4316H1.1111Z" fill="#F9FEDC"/>
<path d="M15.3192 13.4512C15.4972 13.6458 15.4719 13.8351 15.302 14.0191C14.5384 14.8418 13.7788 15.6697 13.0006 16.479C12.901 16.583 12.6992 16.6336 12.5452 16.635C8.88004 16.659 5.21492 16.6723 1.54981 16.6883C1.50466 16.6883 1.4542 16.7003 1.41702 16.683C1.2829 16.619 1.10097 16.575 1.04121 16.4656C0.997388 16.3857 1.08238 16.1843 1.16736 16.091C1.65605 15.5484 2.15934 15.0204 2.66262 14.4911C2.99461 14.1418 3.33323 13.7992 3.6692 13.4525C7.5521 13.4525 11.435 13.4525 15.3179 13.4525L15.3192 13.4512Z" fill="#F9FEDC"/>
<path d="M25.4302 24.9668C24.162 24.9668 22.8938 24.9561 21.6256 24.9748C21.2923 24.9801 21.1981 24.8708 21.2166 24.5521C21.2419 24.1362 21.2392 23.7175 21.2166 23.3029C21.1994 22.9936 21.3043 22.8949 21.615 22.8976C23.6906 22.9096 25.7675 22.9069 27.8431 22.9002C28.2534 22.9002 28.6624 22.8616 29.0727 22.8416C29.09 22.4283 29.1073 22.015 29.1219 21.6016C29.1245 21.523 29.1139 21.443 29.1232 21.3657C29.1644 21.047 29.0183 20.9683 28.7182 20.971C26.8444 20.983 24.9694 20.9803 23.0957 20.975C22.1236 20.9723 21.3255 20.3164 21.117 19.3631C21.0905 19.2431 21.0852 19.1178 21.0852 18.9938C21.0825 18.2952 21.0785 17.5966 21.0852 16.8979C21.0945 15.806 21.9696 14.9234 23.0585 14.9207C25.5165 14.9154 27.9732 14.9234 30.4312 14.9141C30.7101 14.9141 30.8123 15.0007 30.8017 15.2794C30.7871 15.7073 30.7818 16.1367 30.803 16.5633C30.819 16.8833 30.7141 16.9926 30.3847 16.9913C28.1286 16.9793 25.8737 16.9846 23.6176 16.9846C23.3042 16.9846 23.1475 17.1455 23.1475 17.4672C23.1475 17.8059 23.1687 18.1445 23.1408 18.4805C23.1129 18.8178 23.2152 18.9245 23.5658 18.9205C25.4289 18.9031 27.292 18.9125 29.1537 18.9125C29.6424 18.9125 30.0846 19.0498 30.4618 19.3644C30.9465 19.7684 31.1988 20.2991 31.2147 20.927C31.2306 21.603 31.2293 22.2789 31.2147 22.9549C31.1908 24.1108 30.3117 24.9668 29.1604 24.9694C27.9148 24.9721 26.6692 24.9694 25.4236 24.9694L25.4302 24.9668Z" fill="#F9FEDC"/>
<path d="M64.2246 20.7498C64.2246 22.0337 64.218 23.3177 64.2299 24.6016C64.2326 24.8736 64.1596 24.9842 63.8727 24.9722C63.4026 24.9522 62.9299 24.9562 62.4598 24.9709C62.2221 24.9776 62.1491 24.8856 62.1517 24.6549C62.161 23.7883 62.1477 22.9203 62.1597 22.0537C62.1637 21.7911 62.0813 21.6991 61.8144 21.7004C60.0987 21.7098 58.3817 21.7098 56.666 21.7004C56.3978 21.7004 56.3154 21.8031 56.3194 22.0604C56.33 22.871 56.3234 23.6816 56.3221 24.4936C56.3221 24.9669 56.3194 24.9669 55.8666 24.9682C55.4297 24.9682 54.9915 24.9576 54.5546 24.9722C54.3129 24.9802 54.2173 24.9069 54.2173 24.6482C54.2253 22.0697 54.212 19.4899 54.2279 16.9114C54.2345 15.7741 55.1282 14.9208 56.261 14.9195C58.2463 14.9169 60.2329 14.9155 62.2181 14.9195C63.3455 14.9222 64.2207 15.8008 64.2246 16.9341C64.2299 18.2073 64.2246 19.4792 64.2246 20.7525V20.7498ZM59.205 16.9821C58.3419 16.9821 57.4774 16.9887 56.6142 16.9781C56.3672 16.9754 56.2782 17.054 56.2836 17.306C56.2968 17.9593 56.2955 18.6126 56.2836 19.2646C56.2796 19.5019 56.3446 19.6126 56.6036 19.6112C58.3299 19.6032 60.0576 19.6046 61.7839 19.6112C62.0269 19.6112 62.1252 19.5246 62.1212 19.2752C62.1119 18.622 62.1079 17.9687 62.1225 17.3167C62.1291 17.0394 62.011 16.9754 61.76 16.9781C60.9074 16.9887 60.0549 16.9821 59.2037 16.9821H59.205Z" fill="#F9FEDC"/>
<path d="M37.8541 24.9669C36.8329 24.9669 35.813 24.9709 34.7919 24.9669C33.683 24.9616 32.8079 24.0856 32.8053 22.9723C32.7999 20.9565 32.7999 18.9406 32.8053 16.9247C32.8079 15.7928 33.6844 14.9208 34.8171 14.9195C36.8475 14.9169 38.8779 14.9155 40.9083 14.9195C42.0371 14.9208 42.9321 15.7848 42.9401 16.9154C42.9547 18.9313 42.9547 20.9471 42.9401 22.963C42.9321 24.1016 42.0451 24.9629 40.9176 24.9669C39.8964 24.9709 38.8766 24.9669 37.8554 24.9669H37.8541ZM37.8501 16.9821C36.975 16.9821 36.0999 16.9914 35.2261 16.9767C34.9485 16.9727 34.8609 17.058 34.8622 17.3407C34.8742 19.0739 34.8742 20.8085 34.8622 22.5417C34.8609 22.8244 34.9485 22.907 35.2261 22.9057C36.975 22.895 38.7252 22.8963 40.4741 22.9057C40.749 22.907 40.8473 22.8244 40.8459 22.5417C40.8366 20.8085 40.8366 19.0739 40.8459 17.3407C40.8473 17.0567 40.7477 16.9727 40.4741 16.9767C39.599 16.9901 38.7252 16.9821 37.8501 16.9821Z" fill="#F9FEDC"/>
<path d="M76.0761 19.4664C76.0761 20.829 76.0775 22.1929 76.0761 23.5555C76.0761 24.3968 75.525 24.9554 74.6911 24.9621C74.152 24.9661 73.6141 24.9621 73.075 24.9621C72.3194 24.9621 71.8838 24.6701 71.601 23.9688C70.7139 21.7676 69.8269 19.5651 68.9411 17.3625C68.7897 16.9866 68.6118 16.8826 68.2214 16.9946C68.1444 17.0172 68.058 17.1652 68.0541 17.2585C68.0368 17.6972 68.0461 18.1372 68.0461 18.5758C68.0461 20.5583 68.0408 22.5409 68.0514 24.5248C68.0527 24.8514 67.977 24.9967 67.6198 24.9701C67.1962 24.9394 66.766 24.9421 66.341 24.9701C66.005 24.9914 65.9294 24.8594 65.9307 24.5448C65.9426 22.5849 65.9373 20.6237 65.9373 18.6638C65.9373 17.8972 65.9333 17.1319 65.9373 16.3653C65.9426 15.4733 66.5043 14.916 67.3941 14.9134C67.9332 14.912 68.471 14.9134 69.0102 14.9134C69.718 14.9147 70.1376 15.1947 70.4072 15.8626C71.3062 18.0838 72.1999 20.3077 73.0962 22.5302C73.2304 22.8609 73.5889 23.0302 73.8917 22.8755C73.9594 22.8409 74.0019 22.6942 74.0032 22.5982C74.0138 22.0916 74.0085 21.5849 74.0085 21.077C74.0085 19.1958 74.0085 17.3145 74.0085 15.432C74.0085 14.856 73.9567 14.9174 74.541 14.9134C74.9447 14.9107 75.3498 14.9254 75.7534 14.908C76.0071 14.8974 76.0801 14.992 76.0788 15.24C76.0695 16.6479 76.0748 18.0572 76.0748 19.4651L76.0761 19.4664Z" fill="#F9FEDC"/>
<path d="M9.48374 21.5637C7.70032 21.5637 5.91557 21.557 4.13215 21.569C3.79352 21.5717 3.53192 21.4837 3.29953 21.2264C2.60767 20.4584 1.8959 19.7091 1.20537 18.9399C1.1071 18.8305 0.998209 18.5865 1.04734 18.5212C1.13499 18.4052 1.33949 18.3252 1.49486 18.3239C4.05247 18.3132 6.61141 18.3186 9.16902 18.3199C10.246 18.3199 11.3229 18.3266 12.3999 18.3186C12.6907 18.3159 12.9151 18.4106 13.113 18.6239C13.8288 19.4012 14.5565 20.1664 15.2669 20.9477C15.3599 21.0491 15.4555 21.2664 15.409 21.3477C15.3453 21.4584 15.1447 21.5477 15.0027 21.549C13.1621 21.5624 11.3229 21.557 9.48241 21.557V21.5637H9.48374Z" fill="#F9FEDC"/>
<path d="M44.6582 19.1329C44.6582 17.8597 44.6662 16.5877 44.6529 15.3145C44.6502 15.0172 44.722 14.8852 45.0446 14.9065C45.447 14.9332 45.852 14.9132 46.2557 14.9132C46.759 14.9132 46.7603 14.9132 46.7603 15.4065C46.7603 16.6571 46.7603 17.9063 46.7603 19.1569C46.7603 20.2715 46.7696 21.3874 46.7537 22.502C46.7497 22.8114 46.848 22.9073 47.1574 22.9047C48.8731 22.8914 50.5901 22.898 52.3071 22.8994C52.6214 22.8994 52.7786 23.0616 52.7786 23.386C52.7786 23.8246 52.7733 24.2646 52.7799 24.7032C52.7825 24.8886 52.7175 24.9646 52.5276 24.9646C50.5078 24.9606 48.4893 24.9806 46.4695 24.9512C45.4961 24.9366 44.6649 23.9966 44.6595 22.9847C44.6529 21.7008 44.6582 20.4168 44.6582 19.1329Z" fill="#F9FEDC"/>
<path d="M0.646751 9.70117V2.42844H3.51607C4.06768 2.42844 4.53761 2.53379 4.92587 2.7445C5.31413 2.95283 5.61006 3.24284 5.81365 3.61452C6.01962 3.98384 6.1226 4.40998 6.1226 4.89293C6.1226 5.37589 6.01844 5.80202 5.8101 6.17134C5.60177 6.54066 5.29992 6.8283 4.90456 7.03427C4.51157 7.24023 4.03572 7.34322 3.47701 7.34322H1.64817V6.11097H3.22843C3.52435 6.11097 3.7682 6.06007 3.95996 5.95827C4.15409 5.85411 4.2985 5.71088 4.3932 5.52859C4.49026 5.34393 4.5388 5.13204 4.5388 4.89293C4.5388 4.65146 4.49026 4.44075 4.3932 4.26083C4.2985 4.07854 4.15409 3.93768 3.95996 3.83825C3.76583 3.73645 3.51962 3.68555 3.22132 3.68555H2.18439V9.70117H0.646751ZM13.8046 6.06481C13.8046 6.8579 13.6543 7.53261 13.3536 8.08896C13.0553 8.6453 12.6481 9.07025 12.132 9.36381C11.6183 9.65501 11.0406 9.8006 10.3991 9.8006C9.75275 9.8006 9.17273 9.65382 8.659 9.36026C8.14527 9.0667 7.73926 8.64175 7.44096 8.0854C7.14267 7.52906 6.99352 6.85553 6.99352 6.06481C6.99352 5.27172 7.14267 4.59701 7.44096 4.04066C7.73926 3.48432 8.14527 3.06055 8.659 2.76935C9.17273 2.47579 9.75275 2.32901 10.3991 2.32901C11.0406 2.32901 11.6183 2.47579 12.132 2.76935C12.6481 3.06055 13.0553 3.48432 13.3536 4.04066C13.6543 4.59701 13.8046 5.27172 13.8046 6.06481ZM12.2457 6.06481C12.2457 5.55108 12.1687 5.11784 12.0148 4.76509C11.8633 4.41235 11.6491 4.14483 11.3721 3.96254C11.0951 3.78024 10.7707 3.6891 10.3991 3.6891C10.0274 3.6891 9.70304 3.78024 9.42605 3.96254C9.14906 4.14483 8.93362 4.41235 8.77974 4.76509C8.62823 5.11784 8.55247 5.55108 8.55247 6.06481C8.55247 6.57854 8.62823 7.01178 8.77974 7.36452C8.93362 7.71727 9.14906 7.98479 9.42605 8.16708C9.70304 8.34937 10.0274 8.44052 10.3991 8.44052C10.7707 8.44052 11.0951 8.34937 11.3721 8.16708C11.6491 7.98479 11.8633 7.71727 12.0148 7.36452C12.1687 7.01178 12.2457 6.57854 12.2457 6.06481ZM16.3073 9.70117L14.2263 2.42844H15.906L17.1098 7.48171H17.1702L18.4983 2.42844H19.9365L21.2611 7.49237H21.325L22.5289 2.42844H24.2085L22.1276 9.70117H20.629L19.2441 4.9462H19.1872L17.8058 9.70117H16.3073ZM25.0315 9.70117V2.42844H29.9321V3.6962H26.5692V5.42915H29.68V6.69691H26.5692V8.43342H29.9463V9.70117H25.0315ZM31.1546 9.70117V2.42844H34.0239C34.5731 2.42844 35.0419 2.52669 35.4301 2.72319C35.8208 2.91732 36.1179 3.19312 36.3215 3.5506C36.5274 3.90572 36.6304 4.32357 36.6304 4.80415C36.6304 5.28711 36.5262 5.70259 36.3179 6.0506C36.1096 6.39625 35.8077 6.6614 35.4124 6.84606C35.0194 7.03072 34.5435 7.12305 33.9848 7.12305H32.0637V5.88725H33.7362C34.0298 5.88725 34.2736 5.84701 34.4678 5.76651C34.6619 5.68602 34.8063 5.56528 34.901 5.4043C34.9981 5.24331 35.0466 5.04326 35.0466 4.80415C35.0466 4.56268 34.9981 4.35908 34.901 4.19336C34.8063 4.02764 34.6607 3.90217 34.4642 3.81694C34.2701 3.72934 34.0251 3.68555 33.7291 3.68555H32.6922V9.70117H31.1546ZM35.0821 6.39151L36.8896 9.70117H35.1922L33.4237 6.39151H35.0821ZM37.7171 9.70117V2.42844H42.6176V3.6962H39.2547V5.42915H42.3655V6.69691H39.2547V8.43342H42.6318V9.70117H37.7171ZM46.4182 9.70117H43.8401V2.42844H46.4395C47.1711 2.42844 47.8008 2.57404 48.3287 2.86523C48.8567 3.15406 49.2627 3.56954 49.5468 4.11168C49.8332 4.65382 49.9765 5.3025 49.9765 6.05771C49.9765 6.81528 49.8332 7.46632 49.5468 8.01083C49.2627 8.55534 48.8543 8.97319 48.3216 9.26438C47.7913 9.55558 47.1569 9.70117 46.4182 9.70117ZM45.3778 8.3837H46.3543C46.8089 8.3837 47.1912 8.30321 47.5013 8.14222C47.8138 7.97887 48.0482 7.72674 48.2045 7.38583C48.3631 7.04255 48.4424 6.59985 48.4424 6.05771C48.4424 5.5203 48.3631 5.08114 48.2045 4.74023C48.0482 4.39933 47.815 4.14838 47.5049 3.98739C47.1948 3.82641 46.8124 3.74592 46.3579 3.74592H45.3778V8.3837ZM53.43 9.70117V2.42844H56.3419C56.8769 2.42844 57.3232 2.50775 57.6807 2.66637C58.0381 2.82499 58.3068 3.04516 58.4868 3.32688C58.6667 3.60624 58.7567 3.92821 58.7567 4.29279C58.7567 4.57688 58.6998 4.82665 58.5862 5.04208C58.4726 5.25515 58.3163 5.43034 58.1175 5.56765C57.921 5.70259 57.6961 5.79847 57.4427 5.85529V5.92631C57.7197 5.93815 57.979 6.01628 58.2204 6.16069C58.4643 6.3051 58.662 6.50752 58.8135 6.76793C58.965 7.02598 59.0407 7.33375 59.0407 7.69123C59.0407 8.07712 58.9449 8.42158 58.7531 8.72461C58.5637 9.02527 58.2832 9.2632 57.9115 9.43839C57.5398 9.61358 57.0817 9.70117 56.5372 9.70117H53.43ZM54.9676 8.44407H56.2211C56.6497 8.44407 56.9622 8.36239 57.1586 8.19904C57.3551 8.03332 57.4534 7.81315 57.4534 7.53853C57.4534 7.3373 57.4049 7.15974 57.3078 7.00586C57.2107 6.85198 57.0722 6.73124 56.8923 6.64364C56.7148 6.55605 56.5029 6.51225 56.2567 6.51225H54.9676V8.44407ZM54.9676 5.47177H56.1075C56.3182 5.47177 56.5052 5.43507 56.6686 5.36168C56.8343 5.28593 56.9645 5.17939 57.0592 5.04208C57.1563 4.90477 57.2048 4.74023 57.2048 4.54847C57.2048 4.28569 57.1113 4.0738 56.9243 3.91282C56.7396 3.75183 56.4768 3.67134 56.1359 3.67134H54.9676V5.47177ZM59.6151 2.42844H61.3374L62.9958 5.56055H63.0669L64.7252 2.42844H66.4475L63.7948 7.13015V9.70117H62.2678V7.13015L59.6151 2.42844Z" fill="#F9FEDC"/>
</svg>
